<?xml version="1.0" encoding="UTF-8"?><svg xmlns="http://www.w3.org/2000/svg" xmlns:xlink="http://www.w3.org/1999/xlink" height="322pt" style="width:3614px;height:322px;" version="1.1" viewBox="0 0 3614 322" width="3614pt">
    <defs>
        <filter height="300%" id="f1" width="300%" x="-1" y="-1">
            <feGaussianBlur result="blurOut" stdDeviation="2.0"/>
            <feColorMatrix in="blurOut" result="blurOut2" type="matrix" values="0 0 0 0 0 0 0 0 0 0 0 0 0 0 0 0 0 0 .4 0"/>
            <feOffset dx="4.0" dy="4.0" in="blurOut2" result="blurOut3"/>
            <feBlend in="SourceGraphic" in2="blurOut3" mode="normal"/>
        </filter>
    </defs>
    <g>
        <polygon fill="#FFFFFF" filter="url(#f1)" points="1542,124,1603,124,1610,146.4883,1778,146.4883,1778,207,1542,207,1542,124" style="stroke: #000000; stroke-width: 2.0;"/>
        <line style="stroke: #000000; stroke-width: 2.0;" x1="1542" x2="1610" y1="146.4883" y2="146.4883"/>
        <text fill="#000000" font-family="sans-serif" font-size="14" font-weight="bold" lengthAdjust="spacingAndGlyphs" textLength="55" x="1545" y="140.5352">entities</text>
        <polygon fill="#FFFFFF" filter="url(#f1)" points="900,232,969,232,976,254.4883,1121,254.4883,1121,315,900,315,900,232" style="stroke: #000000; stroke-width: 2.0;"/>
        <line style="stroke: #000000; stroke-width: 2.0;" x1="900" x2="976" y1="254.4883" y2="254.4883"/>
        <text fill="#000000" font-family="sans-serif" font-size="14" font-weight="bold" lengthAdjust="spacingAndGlyphs" textLength="63" x="903" y="248.5352">java.lang</text>
        <polygon fill="#FFFFFF" filter="url(#f1)" points="1140,232,1264,232,1271,254.4883,1370,254.4883,1370,315,1140,315,1140,232" style="stroke: #000000; stroke-width: 2.0;"/>
        <line style="stroke: #000000; stroke-width: 2.0;" x1="1140" x2="1271" y1="254.4883" y2="254.4883"/>
        <text fill="#000000" font-family="sans-serif" font-size="14" font-weight="bold" lengthAdjust="spacingAndGlyphs" textLength="118" x="1143" y="248.5352">javax.annotation</text>
        <polygon fill="#FFFFFF" filter="url(#f1)" points="728,124,796,124,803,146.4883,1381,146.4883,1381,207,728,207,728,124" style="stroke: #000000; stroke-width: 2.0;"/>
        <line style="stroke: #000000; stroke-width: 2.0;" x1="728" x2="803" y1="146.4883" y2="146.4883"/>
        <text fill="#000000" font-family="sans-serif" font-size="14" font-weight="bold" lengthAdjust="spacingAndGlyphs" textLength="62" x="731" y="140.5352">javax.ejb</text>
        <polygon fill="#FFFFFF" filter="url(#f1)" points="1846,232,1974,232,1981,254.4883,3328,254.4883,3328,315,1846,315,1846,232" style="stroke: #000000; stroke-width: 2.0;"/>
        <line style="stroke: #000000; stroke-width: 2.0;" x1="1846" x2="1981" y1="254.4883" y2="254.4883"/>
        <text fill="#000000" font-family="sans-serif" font-size="14" font-weight="bold" lengthAdjust="spacingAndGlyphs" textLength="122" x="1849" y="248.5352">javax.persistence</text>
        <polygon fill="#FFFFFF" filter="url(#f1)" points="1522,232,1734,232,1741,254.4883,1827,254.4883,1827,315,1522,315,1522,232" style="stroke: #000000; stroke-width: 2.0;"/>
        <line style="stroke: #000000; stroke-width: 2.0;" x1="1522" x2="1741" y1="254.4883" y2="254.4883"/>
        <text fill="#000000" font-family="sans-serif" font-size="14" font-weight="bold" lengthAdjust="spacingAndGlyphs" textLength="206" x="1525" y="248.5352">javax.persistence.metamodel</text>
        <polygon fill="#FFFFFF" filter="url(#f1)" points="14,16,84,16,91,38.4883,567,38.4883,567,207,14,207,14,16" style="stroke: #000000; stroke-width: 2.0;"/>
        <line style="stroke: #000000; stroke-width: 2.0;" x1="14" x2="91" y1="38.4883" y2="38.4883"/>
        <text fill="#000000" font-family="sans-serif" font-size="14" font-weight="bold" lengthAdjust="spacingAndGlyphs" textLength="64" x="17" y="32.5352">ejbbeans</text>
        <polygon fill="#FFFFFF" filter="url(#f1)" points="2337,124,2420,124,2427,146.4883,2807,146.4883,2807,207,2337,207,2337,124" style="stroke: #000000; stroke-width: 2.0;"/>
        <line style="stroke: #000000; stroke-width: 2.0;" x1="2337" x2="2427" y1="146.4883" y2="146.4883"/>
        <text fill="#000000" font-family="sans-serif" font-size="14" font-weight="bold" lengthAdjust="spacingAndGlyphs" textLength="77" x="2340" y="140.5352">exceptions</text>
        <polygon fill="#FFFFFF" filter="url(#f1)" points="1796,124,1859,124,1866,146.4883,2318,146.4883,2318,207,1796,207,1796,124" style="stroke: #000000; stroke-width: 2.0;"/>
        <line style="stroke: #000000; stroke-width: 2.0;" x1="1796" x2="1866" y1="146.4883" y2="146.4883"/>
        <text fill="#000000" font-family="sans-serif" font-size="14" font-weight="bold" lengthAdjust="spacingAndGlyphs" textLength="57" x="1799" y="140.5352">java.util</text>
        <polygon fill="#FFFFFF" filter="url(#f1)" points="3465,124,3592,124,3599,146.4883,3607,146.4883,3607,207,3465,207,3465,124" style="stroke: #000000; stroke-width: 2.0;"/>
        <line style="stroke: #000000; stroke-width: 2.0;" x1="3465" x2="3599" y1="146.4883" y2="146.4883"/>
        <text fill="#000000" font-family="sans-serif" font-size="14" font-weight="bold" lengthAdjust="spacingAndGlyphs" textLength="121" x="3468" y="140.5352">javax.transaction</text>
        <polygon fill="#FFFFFF" filter="url(#f1)" points="1389,232,1441,232,1448,254.4883,1503,254.4883,1503,315,1389,315,1389,232" style="stroke: #000000; stroke-width: 2.0;"/>
        <line style="stroke: #000000; stroke-width: 2.0;" x1="1389" x2="1448" y1="254.4883" y2="254.4883"/>
        <text fill="#000000" font-family="sans-serif" font-size="14" font-weight="bold" lengthAdjust="spacingAndGlyphs" textLength="46" x="1392" y="248.5352">java.io</text>
        <rect fill="#FEFECE" filter="url(#f1)" height="48" style="stroke: #A80036; stroke-width: 1.5;" width="95" x="1550.5" y="151"/>
        <ellipse cx="1565.5" cy="167" fill="#A9DCDF" rx="11" ry="11" style="stroke: #A80036; stroke-width: 1.0;"/>
        <path d="M1565.6133,162.3481 L1564.4595,167.4199 L1566.7754,167.4199 Z M1564.1191,160.1069 L1567.1157,160.1069 L1570.4609,172.5 L1568.0122,172.5 L1567.2485,169.437 L1563.9697,169.437 L1563.2227,172.5 L1560.7739,172.5 Z "/>
        <text fill="#000000" font-family="sans-serif" font-size="12" font-style="italic" lengthAdjust="spacingAndGlyphs" textLength="63" x="1579.5" y="171.5352">UserEntity_</text>
        <line style="stroke: #A80036; stroke-width: 1.5;" x1="1551.5" x2="1644.5" y1="183" y2="183"/>
        <line style="stroke: #A80036; stroke-width: 1.5;" x1="1551.5" x2="1644.5" y1="191" y2="191"/>
        <rect fill="#FEFECE" filter="url(#f1)" height="48" style="stroke: #A80036; stroke-width: 1.5;" width="89" x="1680.5" y="151"/>
        <ellipse cx="1695.5" cy="167" fill="#ADD1B2" rx="11" ry="11" style="stroke: #A80036; stroke-width: 1.0;"/>
        <path d="M1698.4731,172.6431 Q1697.8921,172.9419 1697.2529,173.0913 Q1696.6138,173.2407 1695.9082,173.2407 Q1693.4014,173.2407 1692.0815,171.5889 Q1690.7617,169.937 1690.7617,166.8159 Q1690.7617,163.6865 1692.0815,162.0347 Q1693.4014,160.3828 1695.9082,160.3828 Q1696.6138,160.3828 1697.2612,160.5322 Q1697.9087,160.6816 1698.4731,160.9805 L1698.4731,163.7031 Q1697.8423,163.1221 1697.2488,162.8523 Q1696.6553,162.5825 1696.0244,162.5825 Q1694.6797,162.5825 1693.9949,163.6492 Q1693.3101,164.7158 1693.3101,166.8159 Q1693.3101,168.9077 1693.9949,169.9744 Q1694.6797,171.041 1696.0244,171.041 Q1696.6553,171.041 1697.2488,170.7712 Q1697.8423,170.5015 1698.4731,169.9204 Z "/>
        <text fill="#000000" font-family="sans-serif" font-size="12" lengthAdjust="spacingAndGlyphs" textLength="57" x="1709.5" y="171.5352">UserEntity</text>
        <line style="stroke: #A80036; stroke-width: 1.5;" x1="1681.5" x2="1768.5" y1="183" y2="183"/>
        <line style="stroke: #A80036; stroke-width: 1.5;" x1="1681.5" x2="1768.5" y1="191" y2="191"/>
        <rect fill="#FEFECE" filter="url(#f1)" height="48" style="stroke: #A80036; stroke-width: 1.5;" width="82" x="908" y="259"/>
        <ellipse cx="923" cy="275" fill="#A9DCDF" rx="11" ry="11" style="stroke: #A80036; stroke-width: 1.0;"/>
        <path d="M925.0767,275.4761 Q925.0767,274.5381 924.6533,274.0068 Q924.23,273.4756 923.4912,273.4756 Q922.7524,273.4756 922.3333,274.0068 Q921.9141,274.5381 921.9141,275.4761 Q921.9141,276.4224 922.3333,276.9536 Q922.7524,277.4849 923.4912,277.4849 Q924.23,277.4849 924.6533,276.9536 Q925.0767,276.4224 925.0767,275.4761 Z M926.6206,278.8794 L924.9937,278.8794 L924.9937,278.1987 Q924.6782,278.6387 924.2507,278.842 Q923.8232,279.0454 923.2256,279.0454 Q921.8643,279.0454 921.03,278.0659 Q920.1958,277.0864 920.1958,275.4761 Q920.1958,273.874 921.0259,272.8987 Q921.856,271.9233 923.2256,271.9233 Q923.8149,271.9233 924.2632,272.1267 Q924.7114,272.3301 924.9937,272.7202 L924.9937,272.3799 Q924.9937,271.251 924.3752,270.6367 Q923.7568,270.0225 922.6113,270.0225 Q920.8848,270.0225 919.7932,271.5415 Q918.7017,273.0605 918.7017,275.4927 Q918.7017,278.041 919.9634,279.5476 Q921.2251,281.0542 923.3252,281.0542 Q923.9893,281.0542 924.6118,280.8591 Q925.2344,280.6641 925.8071,280.2739 L926.5708,281.7349 Q925.8984,282.1914 925.1057,282.4197 Q924.313,282.6479 923.4082,282.6479 Q920.5029,282.6479 918.7764,280.7139 Q917.0498,278.7798 917.0498,275.4927 Q917.0498,272.2803 918.6021,270.3503 Q920.1543,268.4204 922.7109,268.4204 Q924.5205,268.4204 925.5706,269.512 Q926.6206,270.6035 926.6206,272.4878 Z "/>
        <text fill="#000000" font-family="sans-serif" font-size="12" lengthAdjust="spacingAndGlyphs" textLength="50" x="937" y="279.5352">Override</text>
        <line style="stroke: #A80036; stroke-width: 1.5;" x1="909" x2="989" y1="291" y2="291"/>
        <line style="stroke: #A80036; stroke-width: 1.5;" x1="909" x2="989" y1="299" y2="299"/>
        <rect fill="#FEFECE" filter="url(#f1)" height="48" style="stroke: #A80036; stroke-width: 1.5;" width="88" x="1025" y="259"/>
        <ellipse cx="1040" cy="275" fill="#ADD1B2" rx="11" ry="11" style="stroke: #A80036; stroke-width: 1.0;"/>
        <path d="M1042.9731,280.6431 Q1042.3921,280.9419 1041.7529,281.0913 Q1041.1138,281.2407 1040.4082,281.2407 Q1037.9014,281.2407 1036.5815,279.5889 Q1035.2617,277.937 1035.2617,274.8159 Q1035.2617,271.6865 1036.5815,270.0347 Q1037.9014,268.3828 1040.4082,268.3828 Q1041.1138,268.3828 1041.7612,268.5322 Q1042.4087,268.6816 1042.9731,268.9805 L1042.9731,271.7031 Q1042.3423,271.1221 1041.7488,270.8523 Q1041.1553,270.5825 1040.5244,270.5825 Q1039.1797,270.5825 1038.4949,271.6492 Q1037.8101,272.7158 1037.8101,274.8159 Q1037.8101,276.9077 1038.4949,277.9744 Q1039.1797,279.041 1040.5244,279.041 Q1041.1553,279.041 1041.7488,278.7712 Q1042.3423,278.5015 1042.9731,277.9204 Z "/>
        <text fill="#000000" font-family="sans-serif" font-size="12" lengthAdjust="spacingAndGlyphs" textLength="56" x="1054" y="279.5352">Exception</text>
        <line style="stroke: #A80036; stroke-width: 1.5;" x1="1026" x2="1112" y1="291" y2="291"/>
        <line style="stroke: #A80036; stroke-width: 1.5;" x1="1026" x2="1112" y1="299" y2="299"/>
        <rect fill="#FEFECE" filter="url(#f1)" height="48" style="stroke: #A80036; stroke-width: 1.5;" width="93" x="1268.5" y="259"/>
        <ellipse cx="1283.5" cy="275" fill="#A9DCDF" rx="11" ry="11" style="stroke: #A80036; stroke-width: 1.0;"/>
        <path d="M1285.5767,275.4761 Q1285.5767,274.5381 1285.1533,274.0068 Q1284.73,273.4756 1283.9912,273.4756 Q1283.2524,273.4756 1282.8333,274.0068 Q1282.4141,274.5381 1282.4141,275.4761 Q1282.4141,276.4224 1282.8333,276.9536 Q1283.2524,277.4849 1283.9912,277.4849 Q1284.73,277.4849 1285.1533,276.9536 Q1285.5767,276.4224 1285.5767,275.4761 Z M1287.1206,278.8794 L1285.4937,278.8794 L1285.4937,278.1987 Q1285.1782,278.6387 1284.7507,278.842 Q1284.3232,279.0454 1283.7256,279.0454 Q1282.3643,279.0454 1281.53,278.0659 Q1280.6958,277.0864 1280.6958,275.4761 Q1280.6958,273.874 1281.5259,272.8987 Q1282.356,271.9233 1283.7256,271.9233 Q1284.3149,271.9233 1284.7632,272.1267 Q1285.2114,272.3301 1285.4937,272.7202 L1285.4937,272.3799 Q1285.4937,271.251 1284.8752,270.6367 Q1284.2568,270.0225 1283.1113,270.0225 Q1281.3848,270.0225 1280.2932,271.5415 Q1279.2017,273.0605 1279.2017,275.4927 Q1279.2017,278.041 1280.4634,279.5476 Q1281.7251,281.0542 1283.8252,281.0542 Q1284.4893,281.0542 1285.1118,280.8591 Q1285.7344,280.6641 1286.3071,280.2739 L1287.0708,281.7349 Q1286.3984,282.1914 1285.6057,282.4197 Q1284.813,282.6479 1283.9082,282.6479 Q1281.0029,282.6479 1279.2764,280.7139 Q1277.5498,278.7798 1277.5498,275.4927 Q1277.5498,272.2803 1279.1021,270.3503 Q1280.6543,268.4204 1283.2109,268.4204 Q1285.0205,268.4204 1286.0706,269.512 Q1287.1206,270.6035 1287.1206,272.4878 Z "/>
        <text fill="#000000" font-family="sans-serif" font-size="12" lengthAdjust="spacingAndGlyphs" textLength="61" x="1297.5" y="279.5352">Generated</text>
        <line style="stroke: #A80036; stroke-width: 1.5;" x1="1269.5" x2="1360.5" y1="291" y2="291"/>
        <line style="stroke: #A80036; stroke-width: 1.5;" x1="1269.5" x2="1360.5" y1="299" y2="299"/>
        <rect fill="#FEFECE" filter="url(#f1)" height="48" style="stroke: #A80036; stroke-width: 1.5;" width="85" x="1148.5" y="259"/>
        <ellipse cx="1163.5" cy="275" fill="#A9DCDF" rx="11" ry="11" style="stroke: #A80036; stroke-width: 1.0;"/>
        <path d="M1165.5767,275.4761 Q1165.5767,274.5381 1165.1533,274.0068 Q1164.73,273.4756 1163.9912,273.4756 Q1163.2524,273.4756 1162.8333,274.0068 Q1162.4141,274.5381 1162.4141,275.4761 Q1162.4141,276.4224 1162.8333,276.9536 Q1163.2524,277.4849 1163.9912,277.4849 Q1164.73,277.4849 1165.1533,276.9536 Q1165.5767,276.4224 1165.5767,275.4761 Z M1167.1206,278.8794 L1165.4937,278.8794 L1165.4937,278.1987 Q1165.1782,278.6387 1164.7507,278.842 Q1164.3232,279.0454 1163.7256,279.0454 Q1162.3643,279.0454 1161.53,278.0659 Q1160.6958,277.0864 1160.6958,275.4761 Q1160.6958,273.874 1161.5259,272.8987 Q1162.356,271.9233 1163.7256,271.9233 Q1164.3149,271.9233 1164.7632,272.1267 Q1165.2114,272.3301 1165.4937,272.7202 L1165.4937,272.3799 Q1165.4937,271.251 1164.8752,270.6367 Q1164.2568,270.0225 1163.1113,270.0225 Q1161.3848,270.0225 1160.2932,271.5415 Q1159.2017,273.0605 1159.2017,275.4927 Q1159.2017,278.041 1160.4634,279.5476 Q1161.7251,281.0542 1163.8252,281.0542 Q1164.4893,281.0542 1165.1118,280.8591 Q1165.7344,280.6641 1166.3071,280.2739 L1167.0708,281.7349 Q1166.3984,282.1914 1165.6057,282.4197 Q1164.813,282.6479 1163.9082,282.6479 Q1161.0029,282.6479 1159.2764,280.7139 Q1157.5498,278.7798 1157.5498,275.4927 Q1157.5498,272.2803 1159.1021,270.3503 Q1160.6543,268.4204 1163.2109,268.4204 Q1165.0205,268.4204 1166.0706,269.512 Q1167.1206,270.6035 1167.1206,272.4878 Z "/>
        <text fill="#000000" font-family="sans-serif" font-size="12" lengthAdjust="spacingAndGlyphs" textLength="53" x="1177.5" y="279.5352">Resource</text>
        <line style="stroke: #A80036; stroke-width: 1.5;" x1="1149.5" x2="1232.5" y1="291" y2="291"/>
        <line style="stroke: #A80036; stroke-width: 1.5;" x1="1149.5" x2="1232.5" y1="299" y2="299"/>
        <rect fill="#FEFECE" filter="url(#f1)" height="48" style="stroke: #A80036; stroke-width: 1.5;" width="74" x="736" y="151"/>
        <ellipse cx="751" cy="167" fill="#A9DCDF" rx="11" ry="11" style="stroke: #A80036; stroke-width: 1.0;"/>
        <path d="M753.0767,167.4761 Q753.0767,166.5381 752.6533,166.0068 Q752.23,165.4756 751.4912,165.4756 Q750.7524,165.4756 750.3333,166.0068 Q749.9141,166.5381 749.9141,167.4761 Q749.9141,168.4224 750.3333,168.9536 Q750.7524,169.4849 751.4912,169.4849 Q752.23,169.4849 752.6533,168.9536 Q753.0767,168.4224 753.0767,167.4761 Z M754.6206,170.8794 L752.9937,170.8794 L752.9937,170.1987 Q752.6782,170.6387 752.2507,170.842 Q751.8232,171.0454 751.2256,171.0454 Q749.8643,171.0454 749.03,170.0659 Q748.1958,169.0864 748.1958,167.4761 Q748.1958,165.874 749.0259,164.8987 Q749.856,163.9233 751.2256,163.9233 Q751.8149,163.9233 752.2632,164.1267 Q752.7114,164.3301 752.9937,164.7202 L752.9937,164.3799 Q752.9937,163.251 752.3752,162.6367 Q751.7568,162.0225 750.6113,162.0225 Q748.8848,162.0225 747.7932,163.5415 Q746.7017,165.0605 746.7017,167.4927 Q746.7017,170.041 747.9634,171.5476 Q749.2251,173.0542 751.3252,173.0542 Q751.9893,173.0542 752.6118,172.8591 Q753.2344,172.6641 753.8071,172.2739 L754.5708,173.7349 Q753.8984,174.1914 753.1057,174.4197 Q752.313,174.6479 751.4082,174.6479 Q748.5029,174.6479 746.7764,172.7139 Q745.0498,170.7798 745.0498,167.4927 Q745.0498,164.2803 746.6021,162.3503 Q748.1543,160.4204 750.7109,160.4204 Q752.5205,160.4204 753.5706,161.512 Q754.6206,162.6035 754.6206,164.4878 Z "/>
        <text fill="#000000" font-family="sans-serif" font-size="12" lengthAdjust="spacingAndGlyphs" textLength="42" x="765" y="171.5352">Stateful</text>
        <line style="stroke: #A80036; stroke-width: 1.5;" x1="737" x2="809" y1="183" y2="183"/>
        <line style="stroke: #A80036; stroke-width: 1.5;" x1="737" x2="809" y1="191" y2="191"/>
        <rect fill="#FEFECE" filter="url(#f1)" height="48" style="stroke: #A80036; stroke-width: 1.5;" width="82" x="1291" y="151"/>
        <ellipse cx="1306" cy="167" fill="#A9DCDF" rx="11" ry="11" style="stroke: #A80036; stroke-width: 1.0;"/>
        <path d="M1308.0767,167.4761 Q1308.0767,166.5381 1307.6533,166.0068 Q1307.23,165.4756 1306.4912,165.4756 Q1305.7524,165.4756 1305.3333,166.0068 Q1304.9141,166.5381 1304.9141,167.4761 Q1304.9141,168.4224 1305.3333,168.9536 Q1305.7524,169.4849 1306.4912,169.4849 Q1307.23,169.4849 1307.6533,168.9536 Q1308.0767,168.4224 1308.0767,167.4761 Z M1309.6206,170.8794 L1307.9937,170.8794 L1307.9937,170.1987 Q1307.6782,170.6387 1307.2507,170.842 Q1306.8232,171.0454 1306.2256,171.0454 Q1304.8643,171.0454 1304.03,170.0659 Q1303.1958,169.0864 1303.1958,167.4761 Q1303.1958,165.874 1304.0259,164.8987 Q1304.856,163.9233 1306.2256,163.9233 Q1306.8149,163.9233 1307.2632,164.1267 Q1307.7114,164.3301 1307.9937,164.7202 L1307.9937,164.3799 Q1307.9937,163.251 1307.3752,162.6367 Q1306.7568,162.0225 1305.6113,162.0225 Q1303.8848,162.0225 1302.7932,163.5415 Q1301.7017,165.0605 1301.7017,167.4927 Q1301.7017,170.041 1302.9634,171.5476 Q1304.2251,173.0542 1306.3252,173.0542 Q1306.9893,173.0542 1307.6118,172.8591 Q1308.2344,172.6641 1308.8071,172.2739 L1309.5708,173.7349 Q1308.8984,174.1914 1308.1057,174.4197 Q1307.313,174.6479 1306.4082,174.6479 Q1303.5029,174.6479 1301.7764,172.7139 Q1300.0498,170.7798 1300.0498,167.4927 Q1300.0498,164.2803 1301.6021,162.3503 Q1303.1543,160.4204 1305.7109,160.4204 Q1307.5205,160.4204 1308.5706,161.512 Q1309.6206,162.6035 1309.6206,164.4878 Z "/>
        <text fill="#000000" font-family="sans-serif" font-size="12" lengthAdjust="spacingAndGlyphs" textLength="50" x="1320" y="171.5352">Stateless</text>
        <line style="stroke: #A80036; stroke-width: 1.5;" x1="1292" x2="1372" y1="183" y2="183"/>
        <line style="stroke: #A80036; stroke-width: 1.5;" x1="1292" x2="1372" y1="191" y2="191"/>
        <rect fill="#FEFECE" filter="url(#f1)" height="48" style="stroke: #A80036; stroke-width: 1.5;" width="173" x="1082.5" y="151"/>
        <ellipse cx="1097.5" cy="167" fill="#A9DCDF" rx="11" ry="11" style="stroke: #A80036; stroke-width: 1.0;"/>
        <path d="M1099.5767,167.4761 Q1099.5767,166.5381 1099.1533,166.0068 Q1098.73,165.4756 1097.9912,165.4756 Q1097.2524,165.4756 1096.8333,166.0068 Q1096.4141,166.5381 1096.4141,167.4761 Q1096.4141,168.4224 1096.8333,168.9536 Q1097.2524,169.4849 1097.9912,169.4849 Q1098.73,169.4849 1099.1533,168.9536 Q1099.5767,168.4224 1099.5767,167.4761 Z M1101.1206,170.8794 L1099.4937,170.8794 L1099.4937,170.1987 Q1099.1782,170.6387 1098.7507,170.842 Q1098.3232,171.0454 1097.7256,171.0454 Q1096.3643,171.0454 1095.53,170.0659 Q1094.6958,169.0864 1094.6958,167.4761 Q1094.6958,165.874 1095.5259,164.8987 Q1096.356,163.9233 1097.7256,163.9233 Q1098.3149,163.9233 1098.7632,164.1267 Q1099.2114,164.3301 1099.4937,164.7202 L1099.4937,164.3799 Q1099.4937,163.251 1098.8752,162.6367 Q1098.2568,162.0225 1097.1113,162.0225 Q1095.3848,162.0225 1094.2932,163.5415 Q1093.2017,165.0605 1093.2017,167.4927 Q1093.2017,170.041 1094.4634,171.5476 Q1095.7251,173.0542 1097.8252,173.0542 Q1098.4893,173.0542 1099.1118,172.8591 Q1099.7344,172.6641 1100.3071,172.2739 L1101.0708,173.7349 Q1100.3984,174.1914 1099.6057,174.4197 Q1098.813,174.6479 1097.9082,174.6479 Q1095.0029,174.6479 1093.2764,172.7139 Q1091.5498,170.7798 1091.5498,167.4927 Q1091.5498,164.2803 1093.1021,162.3503 Q1094.6543,160.4204 1097.2109,160.4204 Q1099.0205,160.4204 1100.0706,161.512 Q1101.1206,162.6035 1101.1206,164.4878 Z "/>
        <text fill="#000000" font-family="sans-serif" font-size="12" lengthAdjust="spacingAndGlyphs" textLength="141" x="1111.5" y="171.5352">TransactionManagement</text>
        <line style="stroke: #A80036; stroke-width: 1.5;" x1="1083.5" x2="1254.5" y1="183" y2="183"/>
        <line style="stroke: #A80036; stroke-width: 1.5;" x1="1083.5" x2="1254.5" y1="191" y2="191"/>
        <rect fill="#FEFECE" filter="url(#f1)" height="48" style="stroke: #A80036; stroke-width: 1.5;" width="202" x="845" y="151"/>
        <ellipse cx="860" cy="167" fill="#ADD1B2" rx="11" ry="11" style="stroke: #A80036; stroke-width: 1.0;"/>
        <path d="M862.9731,172.6431 Q862.3921,172.9419 861.7529,173.0913 Q861.1138,173.2407 860.4082,173.2407 Q857.9014,173.2407 856.5815,171.5889 Q855.2617,169.937 855.2617,166.8159 Q855.2617,163.6865 856.5815,162.0347 Q857.9014,160.3828 860.4082,160.3828 Q861.1138,160.3828 861.7612,160.5322 Q862.4087,160.6816 862.9731,160.9805 L862.9731,163.7031 Q862.3423,163.1221 861.7488,162.8523 Q861.1553,162.5825 860.5244,162.5825 Q859.1797,162.5825 858.4949,163.6492 Q857.8101,164.7158 857.8101,166.8159 Q857.8101,168.9077 858.4949,169.9744 Q859.1797,171.041 860.5244,171.041 Q861.1553,171.041 861.7488,170.7712 Q862.3423,170.5015 862.9731,169.9204 Z "/>
        <text fill="#000000" font-family="sans-serif" font-size="12" lengthAdjust="spacingAndGlyphs" textLength="170" x="874" y="171.5352">TransactionManagementType</text>
        <line style="stroke: #A80036; stroke-width: 1.5;" x1="846" x2="1046" y1="183" y2="183"/>
        <line style="stroke: #A80036; stroke-width: 1.5;" x1="846" x2="1046" y1="191" y2="191"/>
        <rect fill="#FEFECE" filter="url(#f1)" height="48" style="stroke: #A80036; stroke-width: 1.5;" width="75" x="2190.5" y="259"/>
        <ellipse cx="2205.5" cy="275" fill="#A9DCDF" rx="11" ry="11" style="stroke: #A80036; stroke-width: 1.0;"/>
        <path d="M2207.5767,275.4761 Q2207.5767,274.5381 2207.1533,274.0068 Q2206.73,273.4756 2205.9912,273.4756 Q2205.2524,273.4756 2204.8333,274.0068 Q2204.4141,274.5381 2204.4141,275.4761 Q2204.4141,276.4224 2204.8333,276.9536 Q2205.2524,277.4849 2205.9912,277.4849 Q2206.73,277.4849 2207.1533,276.9536 Q2207.5767,276.4224 2207.5767,275.4761 Z M2209.1206,278.8794 L2207.4937,278.8794 L2207.4937,278.1987 Q2207.1782,278.6387 2206.7507,278.842 Q2206.3232,279.0454 2205.7256,279.0454 Q2204.3643,279.0454 2203.53,278.0659 Q2202.6958,277.0864 2202.6958,275.4761 Q2202.6958,273.874 2203.5259,272.8987 Q2204.356,271.9233 2205.7256,271.9233 Q2206.3149,271.9233 2206.7632,272.1267 Q2207.2114,272.3301 2207.4937,272.7202 L2207.4937,272.3799 Q2207.4937,271.251 2206.8752,270.6367 Q2206.2568,270.0225 2205.1113,270.0225 Q2203.3848,270.0225 2202.2932,271.5415 Q2201.2017,273.0605 2201.2017,275.4927 Q2201.2017,278.041 2202.4634,279.5476 Q2203.7251,281.0542 2205.8252,281.0542 Q2206.4893,281.0542 2207.1118,280.8591 Q2207.7344,280.6641 2208.3071,280.2739 L2209.0708,281.7349 Q2208.3984,282.1914 2207.6057,282.4197 Q2206.813,282.6479 2205.9082,282.6479 Q2203.0029,282.6479 2201.2764,280.7139 Q2199.5498,278.7798 2199.5498,275.4927 Q2199.5498,272.2803 2201.1021,270.3503 Q2202.6543,268.4204 2205.2109,268.4204 Q2207.0205,268.4204 2208.0706,269.512 Q2209.1206,270.6035 2209.1206,272.4878 Z "/>
        <text fill="#000000" font-family="sans-serif" font-size="12" lengthAdjust="spacingAndGlyphs" textLength="43" x="2219.5" y="279.5352">Column</text>
        <line style="stroke: #A80036; stroke-width: 1.5;" x1="2191.5" x2="2264.5" y1="291" y2="291"/>
        <line style="stroke: #A80036; stroke-width: 1.5;" x1="2191.5" x2="2264.5" y1="299" y2="299"/>
        <rect fill="#FEFECE" filter="url(#f1)" height="48" style="stroke: #A80036; stroke-width: 1.5;" width="63" x="2092.5" y="259"/>
        <ellipse cx="2107.5" cy="275" fill="#A9DCDF" rx="11" ry="11" style="stroke: #A80036; stroke-width: 1.0;"/>
        <path d="M2109.5767,275.4761 Q2109.5767,274.5381 2109.1533,274.0068 Q2108.73,273.4756 2107.9912,273.4756 Q2107.2524,273.4756 2106.8333,274.0068 Q2106.4141,274.5381 2106.4141,275.4761 Q2106.4141,276.4224 2106.8333,276.9536 Q2107.2524,277.4849 2107.9912,277.4849 Q2108.73,277.4849 2109.1533,276.9536 Q2109.5767,276.4224 2109.5767,275.4761 Z M2111.1206,278.8794 L2109.4937,278.8794 L2109.4937,278.1987 Q2109.1782,278.6387 2108.7507,278.842 Q2108.3232,279.0454 2107.7256,279.0454 Q2106.3643,279.0454 2105.53,278.0659 Q2104.6958,277.0864 2104.6958,275.4761 Q2104.6958,273.874 2105.5259,272.8987 Q2106.356,271.9233 2107.7256,271.9233 Q2108.3149,271.9233 2108.7632,272.1267 Q2109.2114,272.3301 2109.4937,272.7202 L2109.4937,272.3799 Q2109.4937,271.251 2108.8752,270.6367 Q2108.2568,270.0225 2107.1113,270.0225 Q2105.3848,270.0225 2104.2932,271.5415 Q2103.2017,273.0605 2103.2017,275.4927 Q2103.2017,278.041 2104.4634,279.5476 Q2105.7251,281.0542 2107.8252,281.0542 Q2108.4893,281.0542 2109.1118,280.8591 Q2109.7344,280.6641 2110.3071,280.2739 L2111.0708,281.7349 Q2110.3984,282.1914 2109.6057,282.4197 Q2108.813,282.6479 2107.9082,282.6479 Q2105.0029,282.6479 2103.2764,280.7139 Q2101.5498,278.7798 2101.5498,275.4927 Q2101.5498,272.2803 2103.1021,270.3503 Q2104.6543,268.4204 2107.2109,268.4204 Q2109.0205,268.4204 2110.0706,269.512 Q2111.1206,270.6035 2111.1206,272.4878 Z "/>
        <text fill="#000000" font-family="sans-serif" font-size="12" lengthAdjust="spacingAndGlyphs" textLength="31" x="2121.5" y="279.5352">Entity</text>
        <line style="stroke: #A80036; stroke-width: 1.5;" x1="2093.5" x2="2154.5" y1="291" y2="291"/>
        <line style="stroke: #A80036; stroke-width: 1.5;" x1="2093.5" x2="2154.5" y1="299" y2="299"/>
        <rect fill="#FEFECE" filter="url(#f1)" height="48" style="stroke: #A80036; stroke-width: 1.5;" width="125" x="1932.5" y="259"/>
        <ellipse cx="1947.5" cy="275" fill="#A9DCDF" rx="11" ry="11" style="stroke: #A80036; stroke-width: 1.0;"/>
        <path d="M1949.5767,275.4761 Q1949.5767,274.5381 1949.1533,274.0068 Q1948.73,273.4756 1947.9912,273.4756 Q1947.2524,273.4756 1946.8333,274.0068 Q1946.4141,274.5381 1946.4141,275.4761 Q1946.4141,276.4224 1946.8333,276.9536 Q1947.2524,277.4849 1947.9912,277.4849 Q1948.73,277.4849 1949.1533,276.9536 Q1949.5767,276.4224 1949.5767,275.4761 Z M1951.1206,278.8794 L1949.4937,278.8794 L1949.4937,278.1987 Q1949.1782,278.6387 1948.7507,278.842 Q1948.3232,279.0454 1947.7256,279.0454 Q1946.3643,279.0454 1945.53,278.0659 Q1944.6958,277.0864 1944.6958,275.4761 Q1944.6958,273.874 1945.5259,272.8987 Q1946.356,271.9233 1947.7256,271.9233 Q1948.3149,271.9233 1948.7632,272.1267 Q1949.2114,272.3301 1949.4937,272.7202 L1949.4937,272.3799 Q1949.4937,271.251 1948.8752,270.6367 Q1948.2568,270.0225 1947.1113,270.0225 Q1945.3848,270.0225 1944.2932,271.5415 Q1943.2017,273.0605 1943.2017,275.4927 Q1943.2017,278.041 1944.4634,279.5476 Q1945.7251,281.0542 1947.8252,281.0542 Q1948.4893,281.0542 1949.1118,280.8591 Q1949.7344,280.6641 1950.3071,280.2739 L1951.0708,281.7349 Q1950.3984,282.1914 1949.6057,282.4197 Q1948.813,282.6479 1947.9082,282.6479 Q1945.0029,282.6479 1943.2764,280.7139 Q1941.5498,278.7798 1941.5498,275.4927 Q1941.5498,272.2803 1943.1021,270.3503 Q1944.6543,268.4204 1947.2109,268.4204 Q1949.0205,268.4204 1950.0706,269.512 Q1951.1206,270.6035 1951.1206,272.4878 Z "/>
        <text fill="#000000" font-family="sans-serif" font-size="12" lengthAdjust="spacingAndGlyphs" textLength="93" x="1961.5" y="279.5352">GeneratedValue</text>
        <line style="stroke: #A80036; stroke-width: 1.5;" x1="1933.5" x2="2056.5" y1="291" y2="291"/>
        <line style="stroke: #A80036; stroke-width: 1.5;" x1="1933.5" x2="2056.5" y1="299" y2="299"/>
        <rect fill="#FEFECE" filter="url(#f1)" height="48" style="stroke: #A80036; stroke-width: 1.5;" width="43" x="1854.5" y="259"/>
        <ellipse cx="1869.5" cy="275" fill="#A9DCDF" rx="11" ry="11" style="stroke: #A80036; stroke-width: 1.0;"/>
        <path d="M1871.5767,275.4761 Q1871.5767,274.5381 1871.1533,274.0068 Q1870.73,273.4756 1869.9912,273.4756 Q1869.2524,273.4756 1868.8333,274.0068 Q1868.4141,274.5381 1868.4141,275.4761 Q1868.4141,276.4224 1868.8333,276.9536 Q1869.2524,277.4849 1869.9912,277.4849 Q1870.73,277.4849 1871.1533,276.9536 Q1871.5767,276.4224 1871.5767,275.4761 Z M1873.1206,278.8794 L1871.4937,278.8794 L1871.4937,278.1987 Q1871.1782,278.6387 1870.7507,278.842 Q1870.3232,279.0454 1869.7256,279.0454 Q1868.3643,279.0454 1867.53,278.0659 Q1866.6958,277.0864 1866.6958,275.4761 Q1866.6958,273.874 1867.5259,272.8987 Q1868.356,271.9233 1869.7256,271.9233 Q1870.3149,271.9233 1870.7632,272.1267 Q1871.2114,272.3301 1871.4937,272.7202 L1871.4937,272.3799 Q1871.4937,271.251 1870.8752,270.6367 Q1870.2568,270.0225 1869.1113,270.0225 Q1867.3848,270.0225 1866.2932,271.5415 Q1865.2017,273.0605 1865.2017,275.4927 Q1865.2017,278.041 1866.4634,279.5476 Q1867.7251,281.0542 1869.8252,281.0542 Q1870.4893,281.0542 1871.1118,280.8591 Q1871.7344,280.6641 1872.3071,280.2739 L1873.0708,281.7349 Q1872.3984,282.1914 1871.6057,282.4197 Q1870.813,282.6479 1869.9082,282.6479 Q1867.0029,282.6479 1865.2764,280.7139 Q1863.5498,278.7798 1863.5498,275.4927 Q1863.5498,272.2803 1865.1021,270.3503 Q1866.6543,268.4204 1869.2109,268.4204 Q1871.0205,268.4204 1872.0706,269.512 Q1873.1206,270.6035 1873.1206,272.4878 Z "/>
        <text fill="#000000" font-family="sans-serif" font-size="12" lengthAdjust="spacingAndGlyphs" textLength="11" x="1883.5" y="279.5352">Id</text>
        <line style="stroke: #A80036; stroke-width: 1.5;" x1="1855.5" x2="1896.5" y1="291" y2="291"/>
        <line style="stroke: #A80036; stroke-width: 1.5;" x1="1855.5" x2="1896.5" y1="299" y2="299"/>
        <rect fill="#FEFECE" filter="url(#f1)" height="48" style="stroke: #A80036; stroke-width: 1.5;" width="118" x="2703" y="259"/>
        <ellipse cx="2718" cy="275" fill="#A9DCDF" rx="11" ry="11" style="stroke: #A80036; stroke-width: 1.0;"/>
        <path d="M2720.0767,275.4761 Q2720.0767,274.5381 2719.6533,274.0068 Q2719.23,273.4756 2718.4912,273.4756 Q2717.7524,273.4756 2717.3333,274.0068 Q2716.9141,274.5381 2716.9141,275.4761 Q2716.9141,276.4224 2717.3333,276.9536 Q2717.7524,277.4849 2718.4912,277.4849 Q2719.23,277.4849 2719.6533,276.9536 Q2720.0767,276.4224 2720.0767,275.4761 Z M2721.6206,278.8794 L2719.9937,278.8794 L2719.9937,278.1987 Q2719.6782,278.6387 2719.2507,278.842 Q2718.8232,279.0454 2718.2256,279.0454 Q2716.8643,279.0454 2716.03,278.0659 Q2715.1958,277.0864 2715.1958,275.4761 Q2715.1958,273.874 2716.0259,272.8987 Q2716.856,271.9233 2718.2256,271.9233 Q2718.8149,271.9233 2719.2632,272.1267 Q2719.7114,272.3301 2719.9937,272.7202 L2719.9937,272.3799 Q2719.9937,271.251 2719.3752,270.6367 Q2718.7568,270.0225 2717.6113,270.0225 Q2715.8848,270.0225 2714.7932,271.5415 Q2713.7017,273.0605 2713.7017,275.4927 Q2713.7017,278.041 2714.9634,279.5476 Q2716.2251,281.0542 2718.3252,281.0542 Q2718.9893,281.0542 2719.6118,280.8591 Q2720.2344,280.6641 2720.8071,280.2739 L2721.5708,281.7349 Q2720.8984,282.1914 2720.1057,282.4197 Q2719.313,282.6479 2718.4082,282.6479 Q2715.5029,282.6479 2713.7764,280.7139 Q2712.0498,278.7798 2712.0498,275.4927 Q2712.0498,272.2803 2713.6021,270.3503 Q2715.1543,268.4204 2717.7109,268.4204 Q2719.5205,268.4204 2720.5706,269.512 Q2721.6206,270.6035 2721.6206,272.4878 Z "/>
        <text fill="#000000" font-family="sans-serif" font-size="12" lengthAdjust="spacingAndGlyphs" textLength="86" x="2732" y="279.5352">NamedQueries</text>
        <line style="stroke: #A80036; stroke-width: 1.5;" x1="2704" x2="2820" y1="291" y2="291"/>
        <line style="stroke: #A80036; stroke-width: 1.5;" x1="2704" x2="2820" y1="299" y2="299"/>
        <rect fill="#FEFECE" filter="url(#f1)" height="48" style="stroke: #A80036; stroke-width: 1.5;" width="108" x="2560" y="259"/>
        <ellipse cx="2575" cy="275" fill="#A9DCDF" rx="11" ry="11" style="stroke: #A80036; stroke-width: 1.0;"/>
        <path d="M2577.0767,275.4761 Q2577.0767,274.5381 2576.6533,274.0068 Q2576.23,273.4756 2575.4912,273.4756 Q2574.7524,273.4756 2574.3333,274.0068 Q2573.9141,274.5381 2573.9141,275.4761 Q2573.9141,276.4224 2574.3333,276.9536 Q2574.7524,277.4849 2575.4912,277.4849 Q2576.23,277.4849 2576.6533,276.9536 Q2577.0767,276.4224 2577.0767,275.4761 Z M2578.6206,278.8794 L2576.9937,278.8794 L2576.9937,278.1987 Q2576.6782,278.6387 2576.2507,278.842 Q2575.8232,279.0454 2575.2256,279.0454 Q2573.8643,279.0454 2573.03,278.0659 Q2572.1958,277.0864 2572.1958,275.4761 Q2572.1958,273.874 2573.0259,272.8987 Q2573.856,271.9233 2575.2256,271.9233 Q2575.8149,271.9233 2576.2632,272.1267 Q2576.7114,272.3301 2576.9937,272.7202 L2576.9937,272.3799 Q2576.9937,271.251 2576.3752,270.6367 Q2575.7568,270.0225 2574.6113,270.0225 Q2572.8848,270.0225 2571.7932,271.5415 Q2570.7017,273.0605 2570.7017,275.4927 Q2570.7017,278.041 2571.9634,279.5476 Q2573.2251,281.0542 2575.3252,281.0542 Q2575.9893,281.0542 2576.6118,280.8591 Q2577.2344,280.6641 2577.8071,280.2739 L2578.5708,281.7349 Q2577.8984,282.1914 2577.1057,282.4197 Q2576.313,282.6479 2575.4082,282.6479 Q2572.5029,282.6479 2570.7764,280.7139 Q2569.0498,278.7798 2569.0498,275.4927 Q2569.0498,272.2803 2570.6021,270.3503 Q2572.1543,268.4204 2574.7109,268.4204 Q2576.5205,268.4204 2577.5706,269.512 Q2578.6206,270.6035 2578.6206,272.4878 Z "/>
        <text fill="#000000" font-family="sans-serif" font-size="12" lengthAdjust="spacingAndGlyphs" textLength="76" x="2589" y="279.5352">NamedQuery</text>
        <line style="stroke: #A80036; stroke-width: 1.5;" x1="2561" x2="2667" y1="291" y2="291"/>
        <line style="stroke: #A80036; stroke-width: 1.5;" x1="2561" x2="2667" y1="299" y2="299"/>
        <rect fill="#FEFECE" filter="url(#f1)" height="48" style="stroke: #A80036; stroke-width: 1.5;" width="141" x="3030.5" y="259"/>
        <ellipse cx="3045.5" cy="275" fill="#A9DCDF" rx="11" ry="11" style="stroke: #A80036; stroke-width: 1.0;"/>
        <path d="M3047.5767,275.4761 Q3047.5767,274.5381 3047.1533,274.0068 Q3046.73,273.4756 3045.9912,273.4756 Q3045.2524,273.4756 3044.8333,274.0068 Q3044.4141,274.5381 3044.4141,275.4761 Q3044.4141,276.4224 3044.8333,276.9536 Q3045.2524,277.4849 3045.9912,277.4849 Q3046.73,277.4849 3047.1533,276.9536 Q3047.5767,276.4224 3047.5767,275.4761 Z M3049.1206,278.8794 L3047.4937,278.8794 L3047.4937,278.1987 Q3047.1782,278.6387 3046.7507,278.842 Q3046.3232,279.0454 3045.7256,279.0454 Q3044.3643,279.0454 3043.53,278.0659 Q3042.6958,277.0864 3042.6958,275.4761 Q3042.6958,273.874 3043.5259,272.8987 Q3044.356,271.9233 3045.7256,271.9233 Q3046.3149,271.9233 3046.7632,272.1267 Q3047.2114,272.3301 3047.4937,272.7202 L3047.4937,272.3799 Q3047.4937,271.251 3046.8752,270.6367 Q3046.2568,270.0225 3045.1113,270.0225 Q3043.3848,270.0225 3042.2932,271.5415 Q3041.2017,273.0605 3041.2017,275.4927 Q3041.2017,278.041 3042.4634,279.5476 Q3043.7251,281.0542 3045.8252,281.0542 Q3046.4893,281.0542 3047.1118,280.8591 Q3047.7344,280.6641 3048.3071,280.2739 L3049.0708,281.7349 Q3048.3984,282.1914 3047.6057,282.4197 Q3046.813,282.6479 3045.9082,282.6479 Q3043.0029,282.6479 3041.2764,280.7139 Q3039.5498,278.7798 3039.5498,275.4927 Q3039.5498,272.2803 3041.1021,270.3503 Q3042.6543,268.4204 3045.2109,268.4204 Q3047.0205,268.4204 3048.0706,269.512 Q3049.1206,270.6035 3049.1206,272.4878 Z "/>
        <text fill="#000000" font-family="sans-serif" font-size="12" lengthAdjust="spacingAndGlyphs" textLength="109" x="3059.5" y="279.5352">PersistenceContext</text>
        <line style="stroke: #A80036; stroke-width: 1.5;" x1="3031.5" x2="3170.5" y1="291" y2="291"/>
        <line style="stroke: #A80036; stroke-width: 1.5;" x1="3031.5" x2="3170.5" y1="299" y2="299"/>
        <rect fill="#FEFECE" filter="url(#f1)" height="48" style="stroke: #A80036; stroke-width: 1.5;" width="65" x="2300.5" y="259"/>
        <ellipse cx="2315.5" cy="275" fill="#A9DCDF" rx="11" ry="11" style="stroke: #A80036; stroke-width: 1.0;"/>
        <path d="M2317.5767,275.4761 Q2317.5767,274.5381 2317.1533,274.0068 Q2316.73,273.4756 2315.9912,273.4756 Q2315.2524,273.4756 2314.8333,274.0068 Q2314.4141,274.5381 2314.4141,275.4761 Q2314.4141,276.4224 2314.8333,276.9536 Q2315.2524,277.4849 2315.9912,277.4849 Q2316.73,277.4849 2317.1533,276.9536 Q2317.5767,276.4224 2317.5767,275.4761 Z M2319.1206,278.8794 L2317.4937,278.8794 L2317.4937,278.1987 Q2317.1782,278.6387 2316.7507,278.842 Q2316.3232,279.0454 2315.7256,279.0454 Q2314.3643,279.0454 2313.53,278.0659 Q2312.6958,277.0864 2312.6958,275.4761 Q2312.6958,273.874 2313.5259,272.8987 Q2314.356,271.9233 2315.7256,271.9233 Q2316.3149,271.9233 2316.7632,272.1267 Q2317.2114,272.3301 2317.4937,272.7202 L2317.4937,272.3799 Q2317.4937,271.251 2316.8752,270.6367 Q2316.2568,270.0225 2315.1113,270.0225 Q2313.3848,270.0225 2312.2932,271.5415 Q2311.2017,273.0605 2311.2017,275.4927 Q2311.2017,278.041 2312.4634,279.5476 Q2313.7251,281.0542 2315.8252,281.0542 Q2316.4893,281.0542 2317.1118,280.8591 Q2317.7344,280.6641 2318.3071,280.2739 L2319.0708,281.7349 Q2318.3984,282.1914 2317.6057,282.4197 Q2316.813,282.6479 2315.9082,282.6479 Q2313.0029,282.6479 2311.2764,280.7139 Q2309.5498,278.7798 2309.5498,275.4927 Q2309.5498,272.2803 2311.1021,270.3503 Q2312.6543,268.4204 2315.2109,268.4204 Q2317.0205,268.4204 2318.0706,269.512 Q2319.1206,270.6035 2319.1206,272.4878 Z "/>
        <text fill="#000000" font-family="sans-serif" font-size="12" lengthAdjust="spacingAndGlyphs" textLength="33" x="2329.5" y="279.5352">Table</text>
        <line style="stroke: #A80036; stroke-width: 1.5;" x1="2301.5" x2="2364.5" y1="291" y2="291"/>
        <line style="stroke: #A80036; stroke-width: 1.5;" x1="2301.5" x2="2364.5" y1="299" y2="299"/>
        <rect fill="#FEFECE" filter="url(#f1)" height="48" style="stroke: #A80036; stroke-width: 1.5;" width="113" x="3206.5" y="259"/>
        <ellipse cx="3221.5" cy="275" fill="#ADD1B2" rx="11" ry="11" style="stroke: #A80036; stroke-width: 1.0;"/>
        <path d="M3224.4731,280.6431 Q3223.8921,280.9419 3223.2529,281.0913 Q3222.6138,281.2407 3221.9082,281.2407 Q3219.4014,281.2407 3218.0815,279.5889 Q3216.7617,277.937 3216.7617,274.8159 Q3216.7617,271.6865 3218.0815,270.0347 Q3219.4014,268.3828 3221.9082,268.3828 Q3222.6138,268.3828 3223.2612,268.5322 Q3223.9087,268.6816 3224.4731,268.9805 L3224.4731,271.7031 Q3223.8423,271.1221 3223.2488,270.8523 Q3222.6553,270.5825 3222.0244,270.5825 Q3220.6797,270.5825 3219.9949,271.6492 Q3219.3101,272.7158 3219.3101,274.8159 Q3219.3101,276.9077 3219.9949,277.9744 Q3220.6797,279.041 3222.0244,279.041 Q3222.6553,279.041 3223.2488,278.7712 Q3223.8423,278.5015 3224.4731,277.9204 Z "/>
        <text fill="#000000" font-family="sans-serif" font-size="12" lengthAdjust="spacingAndGlyphs" textLength="81" x="3235.5" y="279.5352">EntityManager</text>
        <line style="stroke: #A80036; stroke-width: 1.5;" x1="3207.5" x2="3318.5" y1="291" y2="291"/>
        <line style="stroke: #A80036; stroke-width: 1.5;" x1="3207.5" x2="3318.5" y1="299" y2="299"/>
        <rect fill="#FEFECE" filter="url(#f1)" height="48" style="stroke: #A80036; stroke-width: 1.5;" width="124" x="2401" y="259"/>
        <ellipse cx="2416" cy="275" fill="#ADD1B2" rx="11" ry="11" style="stroke: #A80036; stroke-width: 1.0;"/>
        <path d="M2418.9731,280.6431 Q2418.3921,280.9419 2417.7529,281.0913 Q2417.1138,281.2407 2416.4082,281.2407 Q2413.9014,281.2407 2412.5815,279.5889 Q2411.2617,277.937 2411.2617,274.8159 Q2411.2617,271.6865 2412.5815,270.0347 Q2413.9014,268.3828 2416.4082,268.3828 Q2417.1138,268.3828 2417.7612,268.5322 Q2418.4087,268.6816 2418.9731,268.9805 L2418.9731,271.7031 Q2418.3423,271.1221 2417.7488,270.8523 Q2417.1553,270.5825 2416.5244,270.5825 Q2415.1797,270.5825 2414.4949,271.6492 Q2413.8101,272.7158 2413.8101,274.8159 Q2413.8101,276.9077 2414.4949,277.9744 Q2415.1797,279.041 2416.5244,279.041 Q2417.1553,279.041 2417.7488,278.7712 Q2418.3423,278.5015 2418.9731,277.9204 Z "/>
        <text fill="#000000" font-family="sans-serif" font-size="12" lengthAdjust="spacingAndGlyphs" textLength="92" x="2430" y="279.5352">GenerationType</text>
        <line style="stroke: #A80036; stroke-width: 1.5;" x1="2402" x2="2524" y1="291" y2="291"/>
        <line style="stroke: #A80036; stroke-width: 1.5;" x1="2402" x2="2524" y1="299" y2="299"/>
        <rect fill="#FEFECE" filter="url(#f1)" height="48" style="stroke: #A80036; stroke-width: 1.5;" width="139" x="2856.5" y="259"/>
        <ellipse cx="2871.5" cy="275" fill="#ADD1B2" rx="11" ry="11" style="stroke: #A80036; stroke-width: 1.0;"/>
        <path d="M2874.4731,280.6431 Q2873.8921,280.9419 2873.2529,281.0913 Q2872.6138,281.2407 2871.9082,281.2407 Q2869.4014,281.2407 2868.0815,279.5889 Q2866.7617,277.937 2866.7617,274.8159 Q2866.7617,271.6865 2868.0815,270.0347 Q2869.4014,268.3828 2871.9082,268.3828 Q2872.6138,268.3828 2873.2612,268.5322 Q2873.9087,268.6816 2874.4731,268.9805 L2874.4731,271.7031 Q2873.8423,271.1221 2873.2488,270.8523 Q2872.6553,270.5825 2872.0244,270.5825 Q2870.6797,270.5825 2869.9949,271.6492 Q2869.3101,272.7158 2869.3101,274.8159 Q2869.3101,276.9077 2869.9949,277.9744 Q2870.6797,279.041 2872.0244,279.041 Q2872.6553,279.041 2873.2488,278.7712 Q2873.8423,278.5015 2874.4731,277.9204 Z "/>
        <text fill="#000000" font-family="sans-serif" font-size="12" lengthAdjust="spacingAndGlyphs" textLength="107" x="2885.5" y="279.5352">NoResultException</text>
        <line style="stroke: #A80036; stroke-width: 1.5;" x1="2857.5" x2="2994.5" y1="291" y2="291"/>
        <line style="stroke: #A80036; stroke-width: 1.5;" x1="2857.5" x2="2994.5" y1="299" y2="299"/>
        <rect fill="#FEFECE" filter="url(#f1)" height="48" style="stroke: #A80036; stroke-width: 1.5;" width="126" x="1693" y="259"/>
        <ellipse cx="1708" cy="275" fill="#A9DCDF" rx="11" ry="11" style="stroke: #A80036; stroke-width: 1.0;"/>
        <path d="M1710.0767,275.4761 Q1710.0767,274.5381 1709.6533,274.0068 Q1709.23,273.4756 1708.4912,273.4756 Q1707.7524,273.4756 1707.3333,274.0068 Q1706.9141,274.5381 1706.9141,275.4761 Q1706.9141,276.4224 1707.3333,276.9536 Q1707.7524,277.4849 1708.4912,277.4849 Q1709.23,277.4849 1709.6533,276.9536 Q1710.0767,276.4224 1710.0767,275.4761 Z M1711.6206,278.8794 L1709.9937,278.8794 L1709.9937,278.1987 Q1709.6782,278.6387 1709.2507,278.842 Q1708.8232,279.0454 1708.2256,279.0454 Q1706.8643,279.0454 1706.03,278.0659 Q1705.1958,277.0864 1705.1958,275.4761 Q1705.1958,273.874 1706.0259,272.8987 Q1706.856,271.9233 1708.2256,271.9233 Q1708.8149,271.9233 1709.2632,272.1267 Q1709.7114,272.3301 1709.9937,272.7202 L1709.9937,272.3799 Q1709.9937,271.251 1709.3752,270.6367 Q1708.7568,270.0225 1707.6113,270.0225 Q1705.8848,270.0225 1704.7932,271.5415 Q1703.7017,273.0605 1703.7017,275.4927 Q1703.7017,278.041 1704.9634,279.5476 Q1706.2251,281.0542 1708.3252,281.0542 Q1708.9893,281.0542 1709.6118,280.8591 Q1710.2344,280.6641 1710.8071,280.2739 L1711.5708,281.7349 Q1710.8984,282.1914 1710.1057,282.4197 Q1709.313,282.6479 1708.4082,282.6479 Q1705.5029,282.6479 1703.7764,280.7139 Q1702.0498,278.7798 1702.0498,275.4927 Q1702.0498,272.2803 1703.6021,270.3503 Q1705.1543,268.4204 1707.7109,268.4204 Q1709.5205,268.4204 1710.5706,269.512 Q1711.6206,270.6035 1711.6206,272.4878 Z "/>
        <text fill="#000000" font-family="sans-serif" font-size="12" lengthAdjust="spacingAndGlyphs" textLength="94" x="1722" y="279.5352">StaticMetamodel</text>
        <line style="stroke: #A80036; stroke-width: 1.5;" x1="1694" x2="1818" y1="291" y2="291"/>
        <line style="stroke: #A80036; stroke-width: 1.5;" x1="1694" x2="1818" y1="299" y2="299"/>
        <rect fill="#FEFECE" filter="url(#f1)" height="48" style="stroke: #A80036; stroke-width: 1.5;" width="127" x="1530.5" y="259"/>
        <ellipse cx="1545.5" cy="275" fill="#ADD1B2" rx="11" ry="11" style="stroke: #A80036; stroke-width: 1.0;"/>
        <path d="M1548.4731,280.6431 Q1547.8921,280.9419 1547.2529,281.0913 Q1546.6138,281.2407 1545.9082,281.2407 Q1543.4014,281.2407 1542.0815,279.5889 Q1540.7617,277.937 1540.7617,274.8159 Q1540.7617,271.6865 1542.0815,270.0347 Q1543.4014,268.3828 1545.9082,268.3828 Q1546.6138,268.3828 1547.2612,268.5322 Q1547.9087,268.6816 1548.4731,268.9805 L1548.4731,271.7031 Q1547.8423,271.1221 1547.2488,270.8523 Q1546.6553,270.5825 1546.0244,270.5825 Q1544.6797,270.5825 1543.9949,271.6492 Q1543.3101,272.7158 1543.3101,274.8159 Q1543.3101,276.9077 1543.9949,277.9744 Q1544.6797,279.041 1546.0244,279.041 Q1546.6553,279.041 1547.2488,278.7712 Q1547.8423,278.5015 1548.4731,277.9204 Z "/>
        <text fill="#000000" font-family="sans-serif" font-size="12" lengthAdjust="spacingAndGlyphs" textLength="95" x="1559.5" y="279.5352">SingularAttribute</text>
        <line style="stroke: #A80036; stroke-width: 1.5;" x1="1531.5" x2="1656.5" y1="291" y2="291"/>
        <line style="stroke: #A80036; stroke-width: 1.5;" x1="1531.5" x2="1656.5" y1="299" y2="299"/>
        <rect fill="#FEFECE" filter="url(#f1)" height="48" style="stroke: #A80036; stroke-width: 1.5;" width="97" x="317.5" y="43"/>
        <ellipse cx="332.5" cy="59" fill="#ADD1B2" rx="11" ry="11" style="stroke: #A80036; stroke-width: 1.0;"/>
        <path d="M335.4731,64.6431 Q334.8921,64.9419 334.2529,65.0913 Q333.6138,65.2407 332.9082,65.2407 Q330.4014,65.2407 329.0815,63.5889 Q327.7617,61.937 327.7617,58.8159 Q327.7617,55.6865 329.0815,54.0347 Q330.4014,52.3828 332.9082,52.3828 Q333.6138,52.3828 334.2612,52.5322 Q334.9087,52.6816 335.4731,52.9805 L335.4731,55.7031 Q334.8423,55.1221 334.2488,54.8523 Q333.6553,54.5825 333.0244,54.5825 Q331.6797,54.5825 330.9949,55.6492 Q330.3101,56.7158 330.3101,58.8159 Q330.3101,60.9077 330.9949,61.9744 Q331.6797,63.041 333.0244,63.041 Q333.6553,63.041 334.2488,62.7712 Q334.8423,62.5015 335.4731,61.9204 Z "/>
        <text fill="#000000" font-family="sans-serif" font-size="12" lengthAdjust="spacingAndGlyphs" textLength="65" x="346.5" y="63.5352">AdminBean</text>
        <line style="stroke: #A80036; stroke-width: 1.5;" x1="318.5" x2="413.5" y1="75" y2="75"/>
        <line style="stroke: #A80036; stroke-width: 1.5;" x1="318.5" x2="413.5" y1="83" y2="83"/>
        <rect fill="#FEFECE" filter="url(#f1)" height="48" style="stroke: #A80036; stroke-width: 1.5;" width="109" x="449.5" y="43"/>
        <ellipse cx="464.5" cy="59" fill="#ADD1B2" rx="11" ry="11" style="stroke: #A80036; stroke-width: 1.0;"/>
        <path d="M467.4731,64.6431 Q466.8921,64.9419 466.2529,65.0913 Q465.6138,65.2407 464.9082,65.2407 Q462.4014,65.2407 461.0815,63.5889 Q459.7617,61.937 459.7617,58.8159 Q459.7617,55.6865 461.0815,54.0347 Q462.4014,52.3828 464.9082,52.3828 Q465.6138,52.3828 466.2612,52.5322 Q466.9087,52.6816 467.4731,52.9805 L467.4731,55.7031 Q466.8423,55.1221 466.2488,54.8523 Q465.6553,54.5825 465.0244,54.5825 Q463.6797,54.5825 462.9949,55.6492 Q462.3101,56.7158 462.3101,58.8159 Q462.3101,60.9077 462.9949,61.9744 Q463.6797,63.041 465.0244,63.041 Q465.6553,63.041 466.2488,62.7712 Q466.8423,62.5015 467.4731,61.9204 Z "/>
        <text fill="#000000" font-family="sans-serif" font-size="12" lengthAdjust="spacingAndGlyphs" textLength="77" x="478.5" y="63.5352">BankTransfer</text>
        <line style="stroke: #A80036; stroke-width: 1.5;" x1="450.5" x2="557.5" y1="75" y2="75"/>
        <line style="stroke: #A80036; stroke-width: 1.5;" x1="450.5" x2="557.5" y1="83" y2="83"/>
        <rect fill="#FEFECE" filter="url(#f1)" height="48" style="stroke: #A80036; stroke-width: 1.5;" width="128" x="154" y="43"/>
        <ellipse cx="169" cy="59" fill="#ADD1B2" rx="11" ry="11" style="stroke: #A80036; stroke-width: 1.0;"/>
        <path d="M171.9731,64.6431 Q171.3921,64.9419 170.7529,65.0913 Q170.1138,65.2407 169.4082,65.2407 Q166.9014,65.2407 165.5815,63.5889 Q164.2617,61.937 164.2617,58.8159 Q164.2617,55.6865 165.5815,54.0347 Q166.9014,52.3828 169.4082,52.3828 Q170.1138,52.3828 170.7612,52.5322 Q171.4087,52.6816 171.9731,52.9805 L171.9731,55.7031 Q171.3423,55.1221 170.7488,54.8523 Q170.1553,54.5825 169.5244,54.5825 Q168.1797,54.5825 167.4949,55.6492 Q166.8101,56.7158 166.8101,58.8159 Q166.8101,60.9077 167.4949,61.9744 Q168.1797,63.041 169.5244,63.041 Q170.1553,63.041 170.7488,62.7712 Q171.3423,62.5015 171.9731,61.9204 Z "/>
        <text fill="#000000" font-family="sans-serif" font-size="12" lengthAdjust="spacingAndGlyphs" textLength="96" x="183" y="63.5352">bankTransaction</text>
        <line style="stroke: #A80036; stroke-width: 1.5;" x1="155" x2="281" y1="75" y2="75"/>
        <line style="stroke: #A80036; stroke-width: 1.5;" x1="155" x2="281" y1="83" y2="83"/>
        <rect fill="#FEFECE" filter="url(#f1)" height="48" style="stroke: #A80036; stroke-width: 1.5;" width="141" x="229.5" y="151"/>
        <ellipse cx="244.5" cy="167" fill="#B4A7E5" rx="11" ry="11" style="stroke: #A80036; stroke-width: 1.0;"/>
        <path d="M240.4277,162.7651 L240.4277,160.6069 L247.8071,160.6069 L247.8071,162.7651 L245.3418,162.7651 L245.3418,170.8418 L247.8071,170.8418 L247.8071,173 L240.4277,173 L240.4277,170.8418 L242.8931,170.8418 L242.8931,162.7651 Z "/>
        <text fill="#000000" font-family="sans-serif" font-size="12" font-style="italic" lengthAdjust="spacingAndGlyphs" textLength="109" x="258.5" y="171.5352">AdminBeanRemote</text>
        <line style="stroke: #A80036; stroke-width: 1.5;" x1="230.5" x2="369.5" y1="183" y2="183"/>
        <line style="stroke: #A80036; stroke-width: 1.5;" x1="230.5" x2="369.5" y1="191" y2="191"/>
        <rect fill="#FEFECE" filter="url(#f1)" height="48" style="stroke: #A80036; stroke-width: 1.5;" width="153" x="405.5" y="151"/>
        <ellipse cx="420.5" cy="167" fill="#B4A7E5" rx="11" ry="11" style="stroke: #A80036; stroke-width: 1.0;"/>
        <path d="M416.4277,162.7651 L416.4277,160.6069 L423.8071,160.6069 L423.8071,162.7651 L421.3418,162.7651 L421.3418,170.8418 L423.8071,170.8418 L423.8071,173 L416.4277,173 L416.4277,170.8418 L418.8931,170.8418 L418.8931,162.7651 Z "/>
        <text fill="#000000" font-family="sans-serif" font-size="12" font-style="italic" lengthAdjust="spacingAndGlyphs" textLength="121" x="434.5" y="171.5352">BankTransferRemote</text>
        <line style="stroke: #A80036; stroke-width: 1.5;" x1="406.5" x2="557.5" y1="183" y2="183"/>
        <line style="stroke: #A80036; stroke-width: 1.5;" x1="406.5" x2="557.5" y1="191" y2="191"/>
        <rect fill="#FEFECE" filter="url(#f1)" height="48" style="stroke: #A80036; stroke-width: 1.5;" width="172" x="22" y="151"/>
        <ellipse cx="37" cy="167" fill="#B4A7E5" rx="11" ry="11" style="stroke: #A80036; stroke-width: 1.0;"/>
        <path d="M32.9277,162.7651 L32.9277,160.6069 L40.3071,160.6069 L40.3071,162.7651 L37.8418,162.7651 L37.8418,170.8418 L40.3071,170.8418 L40.3071,173 L32.9277,173 L32.9277,170.8418 L35.3931,170.8418 L35.3931,162.7651 Z "/>
        <text fill="#000000" font-family="sans-serif" font-size="12" font-style="italic" lengthAdjust="spacingAndGlyphs" textLength="140" x="51" y="171.5352">bankTransactionRemote</text>
        <line style="stroke: #A80036; stroke-width: 1.5;" x1="23" x2="193" y1="183" y2="183"/>
        <line style="stroke: #A80036; stroke-width: 1.5;" x1="23" x2="193" y1="191" y2="191"/>
        <rect fill="#FEFECE" filter="url(#f1)" height="48" style="stroke: #A80036; stroke-width: 1.5;" width="193" x="2605.5" y="151"/>
        <ellipse cx="2620.5" cy="167" fill="#ADD1B2" rx="11" ry="11" style="stroke: #A80036; stroke-width: 1.0;"/>
        <path d="M2623.4731,172.6431 Q2622.8921,172.9419 2622.2529,173.0913 Q2621.6138,173.2407 2620.9082,173.2407 Q2618.4014,173.2407 2617.0815,171.5889 Q2615.7617,169.937 2615.7617,166.8159 Q2615.7617,163.6865 2617.0815,162.0347 Q2618.4014,160.3828 2620.9082,160.3828 Q2621.6138,160.3828 2622.2612,160.5322 Q2622.9087,160.6816 2623.4731,160.9805 L2623.4731,163.7031 Q2622.8423,163.1221 2622.2488,162.8523 Q2621.6553,162.5825 2621.0244,162.5825 Q2619.6797,162.5825 2618.9949,163.6492 Q2618.3101,164.7158 2618.3101,166.8159 Q2618.3101,168.9077 2618.9949,169.9744 Q2619.6797,171.041 2621.0244,171.041 Q2621.6553,171.041 2622.2488,170.7712 Q2622.8423,170.5015 2623.4731,169.9204 Z "/>
        <text fill="#000000" font-family="sans-serif" font-size="12" lengthAdjust="spacingAndGlyphs" textLength="161" x="2634.5" y="171.5352">IncorrectBillDetailsException</text>
        <line style="stroke: #A80036; stroke-width: 1.5;" x1="2606.5" x2="2797.5" y1="183" y2="183"/>
        <line style="stroke: #A80036; stroke-width: 1.5;" x1="2606.5" x2="2797.5" y1="191" y2="191"/>
        <rect fill="#FEFECE" filter="url(#f1)" height="48" style="stroke: #A80036; stroke-width: 1.5;" width="225" x="2345.5" y="151"/>
        <ellipse cx="2360.5" cy="167" fill="#ADD1B2" rx="11" ry="11" style="stroke: #A80036; stroke-width: 1.0;"/>
        <path d="M2363.4731,172.6431 Q2362.8921,172.9419 2362.2529,173.0913 Q2361.6138,173.2407 2360.9082,173.2407 Q2358.4014,173.2407 2357.0815,171.5889 Q2355.7617,169.937 2355.7617,166.8159 Q2355.7617,163.6865 2357.0815,162.0347 Q2358.4014,160.3828 2360.9082,160.3828 Q2361.6138,160.3828 2362.2612,160.5322 Q2362.9087,160.6816 2363.4731,160.9805 L2363.4731,163.7031 Q2362.8423,163.1221 2362.2488,162.8523 Q2361.6553,162.5825 2361.0244,162.5825 Q2359.6797,162.5825 2358.9949,163.6492 Q2358.3101,164.7158 2358.3101,166.8159 Q2358.3101,168.9077 2358.9949,169.9744 Q2359.6797,171.041 2361.0244,171.041 Q2361.6553,171.041 2362.2488,170.7712 Q2362.8423,170.5015 2363.4731,169.9204 Z "/>
        <text fill="#000000" font-family="sans-serif" font-size="12" lengthAdjust="spacingAndGlyphs" textLength="193" x="2374.5" y="171.5352">InvalidCustomerAccountException</text>
        <line style="stroke: #A80036; stroke-width: 1.5;" x1="2346.5" x2="2569.5" y1="183" y2="183"/>
        <line style="stroke: #A80036; stroke-width: 1.5;" x1="2346.5" x2="2569.5" y1="191" y2="191"/>
        <rect fill="#FEFECE" filter="url(#f1)" height="48" style="stroke: #A80036; stroke-width: 1.5;" width="82" x="2228" y="151"/>
        <ellipse cx="2243" cy="167" fill="#ADD1B2" rx="11" ry="11" style="stroke: #A80036; stroke-width: 1.0;"/>
        <path d="M2245.9731,172.6431 Q2245.3921,172.9419 2244.7529,173.0913 Q2244.1138,173.2407 2243.4082,173.2407 Q2240.9014,173.2407 2239.5815,171.5889 Q2238.2617,169.937 2238.2617,166.8159 Q2238.2617,163.6865 2239.5815,162.0347 Q2240.9014,160.3828 2243.4082,160.3828 Q2244.1138,160.3828 2244.7612,160.5322 Q2245.4087,160.6816 2245.9731,160.9805 L2245.9731,163.7031 Q2245.3423,163.1221 2244.7488,162.8523 Q2244.1553,162.5825 2243.5244,162.5825 Q2242.1797,162.5825 2241.4949,163.6492 Q2240.8101,164.7158 2240.8101,166.8159 Q2240.8101,168.9077 2241.4949,169.9744 Q2242.1797,171.041 2243.5244,171.041 Q2244.1553,171.041 2244.7488,170.7712 Q2245.3423,170.5015 2245.9731,169.9204 Z "/>
        <text fill="#000000" font-family="sans-serif" font-size="12" lengthAdjust="spacingAndGlyphs" textLength="50" x="2257" y="171.5352">ArrayList</text>
        <line style="stroke: #A80036; stroke-width: 1.5;" x1="2229" x2="2309" y1="183" y2="183"/>
        <line style="stroke: #A80036; stroke-width: 1.5;" x1="2229" x2="2309" y1="191" y2="191"/>
        <rect fill="#FEFECE" filter="url(#f1)" height="48" style="stroke: #A80036; stroke-width: 1.5;" width="86" x="2107" y="151"/>
        <ellipse cx="2122" cy="167" fill="#ADD1B2" rx="11" ry="11" style="stroke: #A80036; stroke-width: 1.0;"/>
        <path d="M2124.9731,172.6431 Q2124.3921,172.9419 2123.7529,173.0913 Q2123.1138,173.2407 2122.4082,173.2407 Q2119.9014,173.2407 2118.5815,171.5889 Q2117.2617,169.937 2117.2617,166.8159 Q2117.2617,163.6865 2118.5815,162.0347 Q2119.9014,160.3828 2122.4082,160.3828 Q2123.1138,160.3828 2123.7612,160.5322 Q2124.4087,160.6816 2124.9731,160.9805 L2124.9731,163.7031 Q2124.3423,163.1221 2123.7488,162.8523 Q2123.1553,162.5825 2122.5244,162.5825 Q2121.1797,162.5825 2120.4949,163.6492 Q2119.8101,164.7158 2119.8101,166.8159 Q2119.8101,168.9077 2120.4949,169.9744 Q2121.1797,171.041 2122.5244,171.041 Q2123.1553,171.041 2123.7488,170.7712 Q2124.3423,170.5015 2124.9731,169.9204 Z "/>
        <text fill="#000000" font-family="sans-serif" font-size="12" lengthAdjust="spacingAndGlyphs" textLength="54" x="2136" y="171.5352">HashMap</text>
        <line style="stroke: #A80036; stroke-width: 1.5;" x1="2108" x2="2192" y1="183" y2="183"/>
        <line style="stroke: #A80036; stroke-width: 1.5;" x1="2108" x2="2192" y1="191" y2="191"/>
        <rect fill="#FEFECE" filter="url(#f1)" height="48" style="stroke: #A80036; stroke-width: 1.5;" width="89" x="1890.5" y="151"/>
        <ellipse cx="1905.5" cy="167" fill="#ADD1B2" rx="11" ry="11" style="stroke: #A80036; stroke-width: 1.0;"/>
        <path d="M1908.4731,172.6431 Q1907.8921,172.9419 1907.2529,173.0913 Q1906.6138,173.2407 1905.9082,173.2407 Q1903.4014,173.2407 1902.0815,171.5889 Q1900.7617,169.937 1900.7617,166.8159 Q1900.7617,163.6865 1902.0815,162.0347 Q1903.4014,160.3828 1905.9082,160.3828 Q1906.6138,160.3828 1907.2612,160.5322 Q1907.9087,160.6816 1908.4731,160.9805 L1908.4731,163.7031 Q1907.8423,163.1221 1907.2488,162.8523 Q1906.6553,162.5825 1906.0244,162.5825 Q1904.6797,162.5825 1903.9949,163.6492 Q1903.3101,164.7158 1903.3101,166.8159 Q1903.3101,168.9077 1903.9949,169.9744 Q1904.6797,171.041 1906.0244,171.041 Q1906.6553,171.041 1907.2488,170.7712 Q1907.8423,170.5015 1908.4731,169.9204 Z "/>
        <text fill="#000000" font-family="sans-serif" font-size="12" lengthAdjust="spacingAndGlyphs" textLength="57" x="1919.5" y="171.5352">LinkedList</text>
        <line style="stroke: #A80036; stroke-width: 1.5;" x1="1891.5" x2="1978.5" y1="183" y2="183"/>
        <line style="stroke: #A80036; stroke-width: 1.5;" x1="1891.5" x2="1978.5" y1="191" y2="191"/>
        <rect fill="#FEFECE" filter="url(#f1)" height="48" style="stroke: #A80036; stroke-width: 1.5;" width="51" x="1804.5" y="151"/>
        <ellipse cx="1819.5" cy="167" fill="#ADD1B2" rx="11" ry="11" style="stroke: #A80036; stroke-width: 1.0;"/>
        <path d="M1822.4731,172.6431 Q1821.8921,172.9419 1821.2529,173.0913 Q1820.6138,173.2407 1819.9082,173.2407 Q1817.4014,173.2407 1816.0815,171.5889 Q1814.7617,169.937 1814.7617,166.8159 Q1814.7617,163.6865 1816.0815,162.0347 Q1817.4014,160.3828 1819.9082,160.3828 Q1820.6138,160.3828 1821.2612,160.5322 Q1821.9087,160.6816 1822.4731,160.9805 L1822.4731,163.7031 Q1821.8423,163.1221 1821.2488,162.8523 Q1820.6553,162.5825 1820.0244,162.5825 Q1818.6797,162.5825 1817.9949,163.6492 Q1817.3101,164.7158 1817.3101,166.8159 Q1817.3101,168.9077 1817.9949,169.9744 Q1818.6797,171.041 1820.0244,171.041 Q1820.6553,171.041 1821.2488,170.7712 Q1821.8423,170.5015 1822.4731,169.9204 Z "/>
        <text fill="#000000" font-family="sans-serif" font-size="12" lengthAdjust="spacingAndGlyphs" textLength="19" x="1833.5" y="171.5352">List</text>
        <line style="stroke: #A80036; stroke-width: 1.5;" x1="1805.5" x2="1854.5" y1="183" y2="183"/>
        <line style="stroke: #A80036; stroke-width: 1.5;" x1="1805.5" x2="1854.5" y1="191" y2="191"/>
        <rect fill="#FEFECE" filter="url(#f1)" height="48" style="stroke: #A80036; stroke-width: 1.5;" width="57" x="2014.5" y="151"/>
        <ellipse cx="2029.5" cy="167" fill="#ADD1B2" rx="11" ry="11" style="stroke: #A80036; stroke-width: 1.0;"/>
        <path d="M2032.4731,172.6431 Q2031.8921,172.9419 2031.2529,173.0913 Q2030.6138,173.2407 2029.9082,173.2407 Q2027.4014,173.2407 2026.0815,171.5889 Q2024.7617,169.937 2024.7617,166.8159 Q2024.7617,163.6865 2026.0815,162.0347 Q2027.4014,160.3828 2029.9082,160.3828 Q2030.6138,160.3828 2031.2612,160.5322 Q2031.9087,160.6816 2032.4731,160.9805 L2032.4731,163.7031 Q2031.8423,163.1221 2031.2488,162.8523 Q2030.6553,162.5825 2030.0244,162.5825 Q2028.6797,162.5825 2027.9949,163.6492 Q2027.3101,164.7158 2027.3101,166.8159 Q2027.3101,168.9077 2027.9949,169.9744 Q2028.6797,171.041 2030.0244,171.041 Q2030.6553,171.041 2031.2488,170.7712 Q2031.8423,170.5015 2032.4731,169.9204 Z "/>
        <text fill="#000000" font-family="sans-serif" font-size="12" lengthAdjust="spacingAndGlyphs" textLength="25" x="2043.5" y="171.5352">Map</text>
        <line style="stroke: #A80036; stroke-width: 1.5;" x1="2015.5" x2="2070.5" y1="183" y2="183"/>
        <line style="stroke: #A80036; stroke-width: 1.5;" x1="2015.5" x2="2070.5" y1="191" y2="191"/>
        <rect fill="#FEFECE" filter="url(#f1)" height="48" style="stroke: #A80036; stroke-width: 1.5;" width="125" x="3473.5" y="151"/>
        <ellipse cx="3488.5" cy="167" fill="#ADD1B2" rx="11" ry="11" style="stroke: #A80036; stroke-width: 1.0;"/>
        <path d="M3491.4731,172.6431 Q3490.8921,172.9419 3490.2529,173.0913 Q3489.6138,173.2407 3488.9082,173.2407 Q3486.4014,173.2407 3485.0815,171.5889 Q3483.7617,169.937 3483.7617,166.8159 Q3483.7617,163.6865 3485.0815,162.0347 Q3486.4014,160.3828 3488.9082,160.3828 Q3489.6138,160.3828 3490.2612,160.5322 Q3490.9087,160.6816 3491.4731,160.9805 L3491.4731,163.7031 Q3490.8423,163.1221 3490.2488,162.8523 Q3489.6553,162.5825 3489.0244,162.5825 Q3487.6797,162.5825 3486.9949,163.6492 Q3486.3101,164.7158 3486.3101,166.8159 Q3486.3101,168.9077 3486.9949,169.9744 Q3487.6797,171.041 3489.0244,171.041 Q3489.6553,171.041 3490.2488,170.7712 Q3490.8423,170.5015 3491.4731,169.9204 Z "/>
        <text fill="#000000" font-family="sans-serif" font-size="12" lengthAdjust="spacingAndGlyphs" textLength="93" x="3502.5" y="171.5352">UserTransaction</text>
        <line style="stroke: #A80036; stroke-width: 1.5;" x1="3474.5" x2="3597.5" y1="183" y2="183"/>
        <line style="stroke: #A80036; stroke-width: 1.5;" x1="3474.5" x2="3597.5" y1="191" y2="191"/>
        <rect fill="#FEFECE" filter="url(#f1)" height="48" style="stroke: #A80036; stroke-width: 1.5;" width="98" x="1397" y="259"/>
        <ellipse cx="1412" cy="275" fill="#B4A7E5" rx="11" ry="11" style="stroke: #A80036; stroke-width: 1.0;"/>
        <path d="M1407.9277,270.7651 L1407.9277,268.6069 L1415.3071,268.6069 L1415.3071,270.7651 L1412.8418,270.7651 L1412.8418,278.8418 L1415.3071,278.8418 L1415.3071,281 L1407.9277,281 L1407.9277,278.8418 L1410.3931,278.8418 L1410.3931,270.7651 Z "/>
        <text fill="#000000" font-family="sans-serif" font-size="12" font-style="italic" lengthAdjust="spacingAndGlyphs" textLength="66" x="1426" y="279.5352">Serializable</text>
        <line style="stroke: #A80036; stroke-width: 1.5;" x1="1398" x2="1494" y1="291" y2="291"/>
        <line style="stroke: #A80036; stroke-width: 1.5;" x1="1398" x2="1494" y1="299" y2="299"/>
        <path d="M1550.14,197.588 C1541.24,201.084 1531.93,204.402 1523,207 C1461.47,224.9007 1439.74,206.38 1381,232 C1367.62,237.8352 1354.47,246.9067 1343.48,255.7296 " fill="none" style="stroke: #A80036; stroke-width: 1.0; stroke-dasharray: 7.0,7.0;"/>
        <polygon fill="#A80036" points="1339.53,258.9624,1349.0263,256.351,1343.3971,255.7929,1343.9551,250.1636,1339.53,258.9624" style="stroke: #A80036; stroke-width: 1.0;"/>
        <path d="M1632.28,199 C1657.25,215.75 1691.1,238.4607 1717.08,255.8917 " fill="none" style="stroke: #A80036; stroke-width: 1.0; stroke-dasharray: 7.0,7.0;"/>
        <polygon fill="#A80036" points="1721.51,258.8617,1716.2648,250.5258,1717.3579,256.076,1711.8077,257.1691,1721.51,258.8617" style="stroke: #A80036; stroke-width: 1.0;"/>
        <path d="M1597.13,199 C1596.53,215.003 1595.72,236.4461 1595.07,253.528 " fill="none" style="stroke: #A80036; stroke-width: 1.0; stroke-dasharray: 7.0,7.0;"/>
        <polygon fill="#A80036" points="1594.88,258.6784,1599.2163,249.8355,1595.0684,253.682,1591.222,249.534,1594.88,258.6784" style="stroke: #A80036; stroke-width: 1.0;"/>
        <path d="M414.724,86.056 C420.502,87.877 426.352,89.575 432,91 C521.907,113.678 555.549,81.582 638,124 C684.111,147.722 675.9,179.72 720,207 C777.67,242.6741 854.118,263.2407 902.445,273.529 " fill="none" style="stroke: #A80036; stroke-width: 1.0; stroke-dasharray: 7.0,7.0;"/>
        <polygon fill="#A80036" points="907.613,274.6129,899.6266,268.8494,902.7196,273.5858,897.9833,276.6788,907.613,274.6129" style="stroke: #A80036; stroke-width: 1.0;"/>
        <path d="M414.576,86.73 C420.381,88.429 426.277,89.916 432,91 C615.763,125.822 1098.7,56.171 1273,124 C1285.92,129.029 1298.02,138.14 1307.86,147.219 " fill="none" style="stroke: #A80036; stroke-width: 1.0; stroke-dasharray: 7.0,7.0;"/>
        <polygon fill="#A80036" points="1311.65,150.824,1307.8779,141.7261,1308.0242,147.3811,1302.3693,147.5274,1311.65,150.824" style="stroke: #A80036; stroke-width: 1.0;"/>
        <path d="M414.548,86.882 C420.358,88.554 426.263,89.992 432,91 C504.753,103.778 3037.46,73.112 3091,124 C3125.65,156.937 3117.83,218.061 3109.26,253.8601 " fill="none" style="stroke: #A80036; stroke-width: 1.0; stroke-dasharray: 7.0,7.0;"/>
        <polygon fill="#A80036" points="3107.99,258.9519,3114.0413,251.1814,3109.1952,254.0993,3106.2772,249.2531,3107.99,258.9519" style="stroke: #A80036; stroke-width: 1.0;"/>
        <path d="M414.563,86.8 C420.37,88.487 426.271,89.951 432,91 C566.59,115.639 1534.6,76.731 1663,124 C1676.64,129.02 1689.53,138.345 1699.98,147.594 " fill="none" style="stroke: #A80036; stroke-width: 1.0; stroke-dasharray: 7.0,7.0;"/>
        <polygon fill="#A80036" points="1703.72,150.99,1699.7408,141.9808,1700.0164,147.6309,1694.3663,147.9065,1703.72,150.99" style="stroke: #A80036; stroke-width: 1.0;"/>
        <path d="M414.554,86.847 C420.363,88.525 426.267,89.975 432,91 C626.505,125.78 2025.13,54.249 2210,124 C2223.09,128.937 2235.29,138.136 2245.17,147.31 " fill="none" style="stroke: #A80036; stroke-width: 1.0; stroke-dasharray: 7.0,7.0;"/>
        <polygon fill="#A80036" points="2248.97,150.952,2245.2347,141.839,2245.3582,147.4945,2239.7026,147.6179,2248.97,150.952" style="stroke: #A80036; stroke-width: 1.0;"/>
        <path d="M414.556,86.839 C420.364,88.519 426.267,89.971 432,91 C613.25,123.536 1916.22,60.291 2089,124 C2102.5,128.979 2115.2,138.296 2125.48,147.551 " fill="none" style="stroke: #A80036; stroke-width: 1.0; stroke-dasharray: 7.0,7.0;"/>
        <polygon fill="#A80036" points="2129.15,150.95,2125.2645,141.9,2125.4815,147.5527,2119.8288,147.7696,2129.15,150.95" style="stroke: #A80036; stroke-width: 1.0;"/>
        <path d="M414.559,86.822 C420.366,88.505 426.269,89.962 432,91 C589.591,119.532 1722.6,68.967 1873,124 C1886.65,128.994 1899.54,138.314 1909.99,147.567 " fill="none" style="stroke: #A80036; stroke-width: 1.0; stroke-dasharray: 7.0,7.0;"/>
        <polygon fill="#A80036" points="1913.73,150.964,1909.7508,141.9548,1910.0264,147.6049,1904.3763,147.8805,1913.73,150.964" style="stroke: #A80036; stroke-width: 1.0;"/>
        <path d="M414.56,86.814 C420.368,88.498 426.27,89.958 432,91 C580.062,117.919 1649.64,60.343 1786,124 C1796.53,128.918 1805.58,137.686 1812.68,146.521 " fill="none" style="stroke: #A80036; stroke-width: 1.0; stroke-dasharray: 7.0,7.0;"/>
        <polygon fill="#A80036" points="1816.01,150.847,1813.6861,141.2762,1812.9585,146.8861,1807.3487,146.1586,1816.01,150.847" style="stroke: #A80036; stroke-width: 1.0;"/>
        <path d="M414.557,86.833 C420.365,88.514 426.268,89.968 432,91 C517.587,106.415 1917.74,88.217 1997,124 C2007.81,128.88 2017.22,137.64 2024.67,146.479 " fill="none" style="stroke: #A80036; stroke-width: 1.0; stroke-dasharray: 7.0,7.0;"/>
        <polygon fill="#A80036" points="2028.17,150.808,2025.6394,141.2898,2025.0335,146.9141,2019.4092,146.3082,2028.17,150.808" style="stroke: #A80036; stroke-width: 1.0;"/>
        <path d="M414.547,86.887 C420.357,88.558 426.263,89.995 432,91 C510.587,104.766 3247.91,67.262 3304,124 C3338.75,159.15 3307.12,219.742 3283.43,254.794 " fill="none" style="stroke: #A80036; stroke-width: 1.0; stroke-dasharray: 7.0,7.0;"/>
        <polygon fill="#A80036" points="3280.58,258.9386,3288.9674,253.7762,3283.4067,254.8143,3282.3685,249.2535,3280.58,258.9386" style="stroke: #A80036; stroke-width: 1.0;"/>
        <path d="M414.549,86.876 C420.359,88.549 426.264,89.989 432,91 C498.92,102.791 2823.69,83.166 2878,124 C2918.08,154.131 2925.8,216.839 2926.67,253.5472 " fill="none" style="stroke: #A80036; stroke-width: 1.0; stroke-dasharray: 7.0,7.0;"/>
        <polygon fill="#A80036" points="2926.75,258.7675,2930.6086,249.706,2926.6717,253.7681,2922.6096,249.8312,2926.75,258.7675" style="stroke: #A80036; stroke-width: 1.0;"/>
        <path d="M351.679,91 C343.948,103.416 334.179,119.107 325.22,133.495 " fill="none" style="stroke: #A80036; stroke-width: 1.0;"/>
        <polygon fill="none" points="331.034,137.4,314.521,150.678,319.15,130.001,331.034,137.4" style="stroke: #A80036; stroke-width: 1.0;"/>
        <path d="M558.67,69.419 C747.236,74.574 1360.48,93.623 1389,124 C1414.25,150.895 1414.22,180.077 1389,207 C1359.92,238.0435 1046.37,215.891 1007,232 C994.291,237.2004 982.396,246.3439 972.726,255.402 " fill="none" style="stroke: #A80036; stroke-width: 1.0; stroke-dasharray: 7.0,7.0;"/>
        <polygon fill="#A80036" points="968.997,258.9953,978.2532,255.6305,972.5973,255.5258,972.702,249.8699,968.997,258.9953" style="stroke: #A80036; stroke-width: 1.0;"/>
        <path d="M558.599,67.621 C711.868,67.24 1143.35,71.032 1273,124 C1285.73,129.2 1297.71,138.241 1307.52,147.217 " fill="none" style="stroke: #A80036; stroke-width: 1.0; stroke-dasharray: 7.0,7.0;"/>
        <polygon fill="#A80036" points="1311.3,150.78,1307.4894,141.6982,1307.6597,147.3525,1302.0054,147.5227,1311.3,150.78" style="stroke: #A80036; stroke-width: 1.0;"/>
        <path d="M558.77,68.102 C934.262,68.925 3114.79,75.781 3162,124 C3187.81,150.358 3174.35,172.24 3162,207 C3155.63,224.9156 3142.96,241.6615 3130.8,254.7648 " fill="none" style="stroke: #A80036; stroke-width: 1.0; stroke-dasharray: 7.0,7.0;"/>
        <polygon fill="#A80036" points="3127.05,258.7117,3136.1466,254.9364,3130.4916,255.0847,3130.3434,249.4298,3127.05,258.7117" style="stroke: #A80036; stroke-width: 1.0;"/>
        <path d="M558.693,68.654 C774.367,71.505 1559.21,84.52 1663,124 C1676.47,129.123 1689.24,138.359 1699.66,147.512 " fill="none" style="stroke: #A80036; stroke-width: 1.0; stroke-dasharray: 7.0,7.0;"/>
        <polygon fill="#A80036" points="1703.39,150.873,1699.397,141.8699,1699.6813,147.5196,1694.0316,147.8038,1703.39,150.873" style="stroke: #A80036; stroke-width: 1.0;"/>
        <path d="M558.59,68.213 C867.041,69.583 2385.07,78.601 2588,124 C2611.14,129.176 2635.38,139.098 2655.53,148.747 " fill="none" style="stroke: #A80036; stroke-width: 1.0; stroke-dasharray: 7.0,7.0;"/>
        <polygon fill="#A80036" points="2660.03,150.93,2653.6636,143.4154,2655.5271,148.7565,2650.186,150.62,2660.03,150.93" style="stroke: #A80036; stroke-width: 1.0;"/>
        <path d="M558.69,68.014 C951.084,68.239 3323.77,71.764 3375,124 C3400.83,150.338 3392.37,174.458 3375,207 C3363.68,228.2075 3343.41,244.4718 3323.19,256.3451 " fill="none" style="stroke: #A80036; stroke-width: 1.0; stroke-dasharray: 7.0,7.0;"/>
        <polygon fill="#A80036" points="3318.61,258.964,3328.4078,257.9628,3322.949,256.4794,3324.4324,251.0205,3318.61,258.964" style="stroke: #A80036; stroke-width: 1.0;"/>
        <path d="M558.615,68.204 C915.834,69.665 2905.78,79.781 2949,124 C2982.65,158.434 2960.05,218.881 2942.04,254.1877 " fill="none" style="stroke: #A80036; stroke-width: 1.0; stroke-dasharray: 7.0,7.0;"/>
        <polygon fill="#A80036" points="2939.64,258.7866,2947.3466,252.6541,2941.9508,254.3526,2940.2523,248.9568,2939.64,258.7866" style="stroke: #A80036; stroke-width: 1.0;"/>
        <path d="M499.226,91 C496.793,102.726 493.753,117.374 490.907,131.086 " fill="none" style="stroke: #A80036; stroke-width: 1.0;"/>
        <polygon fill="none" points="497.759,132.518,486.84,150.678,484.051,129.673,497.759,132.518" style="stroke: #A80036; stroke-width: 1.0;"/>
        <path d="M282.231,87.028 C288.209,88.493 294.199,89.847 300,91 C421.169,115.087 470.035,60.49 576,124 C614.601,147.135 596.789,181.689 634,207 C716.85,263.3543 837.031,277.5926 902.398,281.0428 " fill="none" style="stroke: #A80036; stroke-width: 1.0; stroke-dasharray: 7.0,7.0;"/>
        <polygon fill="#A80036" points="907.779,281.3089,898.9877,276.8689,902.7851,281.0618,898.5923,284.8592,907.779,281.3089" style="stroke: #A80036; stroke-width: 1.0;"/>
        <path d="M282.134,87.58 C288.133,88.929 294.154,90.105 300,91 C359.831,100.157 1346.85,80.557 1389,124 C1414.69,150.476 1412.65,178.686 1389,207 C1349.05,254.8425 1307.47,205.621 1251,232 C1238.64,237.7752 1226.72,246.737 1216.81,255.4875 " fill="none" style="stroke: #A80036; stroke-width: 1.0; stroke-dasharray: 7.0,7.0;"/>
        <polygon fill="#A80036" points="1212.97,258.9531,1222.3274,255.8809,1216.6776,255.5985,1216.9601,249.9487,1212.97,258.9531" style="stroke: #A80036; stroke-width: 1.0;"/>
        <path d="M282.205,87.163 C288.189,88.599 294.187,89.91 300,91 C448.35,118.823 490.902,90.176 638,124 C670.103,131.382 704.932,144.415 731.172,155.325 " fill="none" style="stroke: #A80036; stroke-width: 1.0; stroke-dasharray: 7.0,7.0;"/>
        <polygon fill="#A80036" points="735.969,157.335,729.213,150.1687,731.3572,155.4034,726.1224,157.5476,735.969,157.335" style="stroke: #A80036; stroke-width: 1.0;"/>
        <path d="M282.146,87.5 C288.143,88.865 294.16,90.068 300,91 C467.811,117.791 899.089,82.98 1064,124 C1085.13,129.257 1107.1,138.96 1125.44,148.429 " fill="none" style="stroke: #A80036; stroke-width: 1.0; stroke-dasharray: 7.0,7.0;"/>
        <polygon fill="#A80036" points="1130.02,150.829,1123.9146,143.1009,1125.5942,148.5026,1120.1924,150.1822,1130.02,150.829" style="stroke: #A80036; stroke-width: 1.0;"/>
        <path d="M282.118,87.689 C288.12,89.015 294.146,90.156 300,91 C441.274,111.363 2732.87,81.088 2869,124 C2952.52,150.328 3033.1,217.548 3073.72,255.2781 " fill="none" style="stroke: #A80036; stroke-width: 1.0; stroke-dasharray: 7.0,7.0;"/>
        <polygon fill="#A80036" points="3077.52,258.835,3073.6769,249.7669,3073.8674,255.4205,3068.2137,255.6111,3077.52,258.835" style="stroke: #A80036; stroke-width: 1.0;"/>
        <path d="M282.128,87.618 C288.128,88.959 294.151,90.123 300,91 C449.814,113.464 1520.77,71.851 1663,124 C1676.64,129.003 1689.53,138.324 1699.99,147.576 " fill="none" style="stroke: #A80036; stroke-width: 1.0; stroke-dasharray: 7.0,7.0;"/>
        <polygon fill="#A80036" points="1703.73,150.973,1699.7699,141.9554,1700.0335,147.6061,1694.3828,147.8697,1703.73,150.973" style="stroke: #A80036; stroke-width: 1.0;"/>
        <path d="M282.119,87.679 C288.121,89.007 294.147,90.152 300,91 C551.619,127.471 2339.54,70.036 2588,124 C2611.27,129.053 2635.62,139.017 2655.82,148.729 " fill="none" style="stroke: #A80036; stroke-width: 1.0; stroke-dasharray: 7.0,7.0;"/>
        <polygon fill="#A80036" points="2660.33,150.926,2654.0052,143.3764,2655.8392,148.7277,2650.4879,150.5617,2660.33,150.926" style="stroke: #A80036; stroke-width: 1.0;"/>
        <path d="M282.121,87.667 C288.122,88.998 294.148,90.146 300,91 C745.565,156.006 1883.75,39.32 2326,124 C2352.74,129.12 2381.13,139.212 2404.7,148.997 " fill="none" style="stroke: #A80036; stroke-width: 1.0; stroke-dasharray: 7.0,7.0;"/>
        <polygon fill="#A80036" points="2409.35,150.948,2402.6091,143.7675,2404.7423,149.0067,2399.503,151.1398,2409.35,150.948" style="stroke: #A80036; stroke-width: 1.0;"/>
        <path d="M282.125,87.638 C288.126,88.975 294.15,90.132 300,91 C472.925,116.643 1708.77,64.086 1873,124 C1886.65,128.981 1899.54,138.298 1910,147.553 " fill="none" style="stroke: #A80036; stroke-width: 1.0; stroke-dasharray: 7.0,7.0;"/>
        <polygon fill="#A80036" points="1913.74,150.951,1909.7816,141.9326,1910.0442,147.5834,1904.3934,147.8459,1913.74,150.951" style="stroke: #A80036; stroke-width: 1.0;"/>
        <path d="M282.126,87.63 C288.127,88.968 294.15,90.129 300,91 C381.675,103.163 1711.14,89.151 1786,124 C1796.54,128.907 1805.59,137.672 1812.69,146.508 " fill="none" style="stroke: #A80036; stroke-width: 1.0; stroke-dasharray: 7.0,7.0;"/>
        <polygon fill="#A80036" points="1816.02,150.835,1813.7128,141.2602,1812.9754,146.8688,1807.3668,146.1315,1816.02,150.835" style="stroke: #A80036; stroke-width: 1.0;"/>
        <path d="M282.166,87.379 C288.158,88.77 294.169,90.011 300,91 C531.377,130.241 598.507,70.463 827,124 C850.631,129.537 875.567,139.339 896.474,148.805 " fill="none" style="stroke: #A80036; stroke-width: 1.0; stroke-dasharray: 7.0,7.0;"/>
        <polygon fill="#A80036" points="901.146,150.945,894.6283,143.5612,896.5999,148.8634,891.2978,150.835,901.146,150.945" style="stroke: #A80036; stroke-width: 1.0;"/>
        <path d="M282.117,87.692 C288.12,89.017 294.146,90.158 300,91 C593.335,133.21 2678.62,55.695 2967,124 C3069.82,148.355 3175.55,217.527 3228.44,255.7734 " fill="none" style="stroke: #A80036; stroke-width: 1.0; stroke-dasharray: 7.0,7.0;"/>
        <polygon fill="#A80036" points="3232.77,258.9239,3227.8462,250.3942,3228.7271,255.982,3223.1392,256.8629,3232.77,258.9239" style="stroke: #A80036; stroke-width: 1.0;"/>
        <path d="M282.118,87.687 C288.12,89.013 294.146,90.155 300,91 C369.151,100.977 2753.21,91.381 2815,124 C2816.74,124.919 2875.75,209.643 2907,254.6283 " fill="none" style="stroke: #A80036; stroke-width: 1.0; stroke-dasharray: 7.0,7.0;"/>
        <polygon fill="#A80036" points="2909.94,258.8535,2908.0834,249.1812,2907.0844,254.7492,2901.5165,253.7502,2909.94,258.8535" style="stroke: #A80036; stroke-width: 1.0;"/>
        <path d="M282.116,87.701 C288.119,89.024 294.146,90.162 300,91 C630.428,138.314 2972.28,86.816 3304,124 C3359.9,130.266 3422.16,144.069 3468.1,155.588 " fill="none" style="stroke: #A80036; stroke-width: 1.0; stroke-dasharray: 7.0,7.0;"/>
        <polygon fill="#A80036" points="3473.05,156.838,3465.2918,150.7708,3468.1999,155.623,3463.3478,158.531,3473.05,156.838" style="stroke: #A80036; stroke-width: 1.0;"/>
        <path d="M194.132,91 C180.388,104.244 162.778,121.214 147.067,136.354 " fill="none" style="stroke: #A80036; stroke-width: 1.0;"/>
        <polygon fill="none" points="151.46,141.841,132.202,150.678,141.746,131.76,151.46,141.841" style="stroke: #A80036; stroke-width: 1.0;"/>
        <path d="M1684.94,199.083 C1677.83,202.285 1670.34,205.118 1663,207 C1521.68,243.2151 1142.76,178.597 1007,232 C994.221,237.0267 982.312,246.1367 972.652,255.2166 " fill="none" style="stroke: #A80036; stroke-width: 1.0; stroke-dasharray: 7.0,7.0;"/>
        <polygon fill="#A80036" points="968.927,258.8213,978.1761,255.437,972.5201,255.3442,972.6129,249.6881,968.927,258.8213" style="stroke: #A80036; stroke-width: 1.0;"/>
        <path d="M1766.12,199.065 C1773.24,202.225 1780.7,205.049 1788,207 C1870.83,229.1289 2094.08,198.508 2173,232 C2185.06,237.1167 2196.2,246.036 2205.26,254.9382 " fill="none" style="stroke: #A80036; stroke-width: 1.0; stroke-dasharray: 7.0,7.0;"/>
        <polygon fill="#A80036" points="2209.01,258.7413,2205.5347,249.526,2205.4977,255.1827,2199.841,255.1456,2209.01,258.7413" style="stroke: #A80036; stroke-width: 1.0;"/>
        <path d="M1766.51,199.08 C1773.51,202.196 1780.84,205.002 1788,207 C1911.33,241.4089 1959.22,177.325 2075,232 C2086.16,237.2678 2096.17,246.2185 2104.19,255.1034 " fill="none" style="stroke: #A80036; stroke-width: 1.0; stroke-dasharray: 7.0,7.0;"/>
        <polygon fill="#A80036" points="2107.5,258.8963,2104.5806,249.4901,2104.2062,255.1345,2098.5618,254.7601,2107.5,258.8963" style="stroke: #A80036; stroke-width: 1.0;"/>
        <path d="M1768.09,199.042 C1774.64,202.005 1781.42,204.776 1788,207 C1842.5,225.4139 1861.5,210.85 1915,232 C1930.46,238.1133 1946.24,247.2414 1959.66,256.0317 " fill="none" style="stroke: #A80036; stroke-width: 1.0; stroke-dasharray: 7.0,7.0;"/>
        <polygon fill="#A80036" points="1964.11,258.995,1958.8349,250.6779,1959.9479,256.2242,1954.4017,257.3372,1964.11,258.995" style="stroke: #A80036; stroke-width: 1.0;"/>
        <path d="M1769.56,198.161 C1798.75,212.766 1832.05,229.6242 1835,232 C1842.97,238.4118 1850.46,246.5943 1856.8,254.4744 " fill="none" style="stroke: #A80036; stroke-width: 1.0; stroke-dasharray: 7.0,7.0;"/>
        <polygon fill="#A80036" points="1860.21,258.8079,1857.8109,249.2557,1857.1275,254.8711,1851.5121,254.1877,1860.21,258.8079" style="stroke: #A80036; stroke-width: 1.0;"/>
        <path d="M1765.72,199.147 C1772.94,202.341 1780.55,205.155 1788,207 C1981.79,254.9486 2495.57,172.077 2686,232 C2701.97,237.026 2717.75,246.4641 2730.75,255.7981 " fill="none" style="stroke: #A80036; stroke-width: 1.0; stroke-dasharray: 7.0,7.0;"/>
        <polygon fill="#A80036" points="2735.05,258.9531,2730.1589,250.4046,2731.0183,255.9958,2725.4272,256.8553,2735.05,258.9531" style="stroke: #A80036; stroke-width: 1.0;"/>
        <path d="M1765.73,199.113 C1772.95,202.312 1780.55,205.136 1788,207 C1950.85,247.7487 2383.83,178.664 2543,232 C2558.03,237.0352 2572.68,246.3655 2584.74,255.6148 " fill="none" style="stroke: #A80036; stroke-width: 1.0; stroke-dasharray: 7.0,7.0;"/>
        <polygon fill="#A80036" points="2588.73,258.7421,2584.1173,250.0402,2584.7959,255.6562,2579.1799,256.3347,2588.73,258.7421" style="stroke: #A80036; stroke-width: 1.0;"/>
        <path d="M1765.76,199.003 C1772.98,202.214 1780.57,205.071 1788,207 C1894.61,234.6619 2182.34,187.297 2283,232 C2294.49,237.1009 2304.78,246.1181 2313,255.1037 " fill="none" style="stroke: #A80036; stroke-width: 1.0; stroke-dasharray: 7.0,7.0;"/>
        <polygon fill="#A80036" points="2316.4,258.9412,2313.4312,249.5504,2313.0865,255.1968,2307.4401,254.8521,2316.4,258.9412" style="stroke: #A80036; stroke-width: 1.0;"/>
        <path d="M1765.74,199.057 C1772.96,202.262 1780.56,205.103 1788,207 C1916.24,239.6944 2256.58,192.854 2383,232 C2399.59,237.137 2416.16,246.5961 2429.88,255.9158 " fill="none" style="stroke: #A80036; stroke-width: 1.0; stroke-dasharray: 7.0,7.0;"/>
        <polygon fill="#A80036" points="2434.05,258.7987,2428.9228,250.3897,2429.9376,255.9548,2424.3725,256.9695,2434.05,258.7987" style="stroke: #A80036; stroke-width: 1.0;"/>
        <path d="M1683.02,199.067 C1676.45,202.064 1669.64,204.838 1663,207 C1599.15,227.7998 1575.84,205.843 1514,232 C1504.86,235.8636 1495.81,241.1796 1487.42,246.9099 " fill="none" style="stroke: #A80036; stroke-width: 1.0;"/>
        <polygon fill="none" points="1491.56,252.5535,1471.35,258.9212,1483.18,241.3401,1491.56,252.5535" style="stroke: #A80036; stroke-width: 1.0;"/>
        <path d="M2627.74,199.036 C2614.62,202.289 2601,205.151 2588,207 C2507.91,218.396 1208.16,204.715 1132,232 C1122.91,235.2561 1114.14,240.4006 1106.17,246.1759 " fill="none" style="stroke: #A80036; stroke-width: 1.0;"/>
        <polygon fill="none" points="1110.56,251.63,1090.66,258.9208,1101.67,240.8141,1110.56,251.63" style="stroke: #A80036; stroke-width: 1.0;"/>
        <path d="M2371.49,199.043 C2356.42,202.272 2340.83,205.124 2326,207 C2194.35,223.6493 1256.84,187.011 1132,232 C1122.92,235.2733 1114.15,240.4256 1106.18,246.2033 " fill="none" style="stroke: #A80036; stroke-width: 1.0;"/>
        <polygon fill="none" points="1110.57,251.6573,1090.67,258.9463,1101.68,240.8406,1110.57,251.6573" style="stroke: #A80036; stroke-width: 1.0;"/>
    </g>
</svg>
