<?xml version="1.0" encoding="UTF-8"?><svg xmlns="http://www.w3.org/2000/svg" xmlns:xlink="http://www.w3.org/1999/xlink" height="214pt" style="width:1255px;height:214px;" version="1.1" viewBox="0 0 1255 214" width="1255pt">
    <defs>
        <filter height="300%" id="f1" width="300%" x="-1" y="-1">
            <feGaussianBlur result="blurOut" stdDeviation="2.0"/>
            <feColorMatrix in="blurOut" result="blurOut2" type="matrix" values="0 0 0 0 0 0 0 0 0 0 0 0 0 0 0 0 0 0 .4 0"/>
            <feOffset dx="4.0" dy="4.0" in="blurOut2" result="blurOut3"/>
            <feBlend in="SourceGraphic" in2="blurOut3" mode="normal"/>
        </filter>
    </defs>
    <g>
        <polygon fill="#FFFFFF" filter="url(#f1)" points="14,124,83,124,90,146.4883,112,146.4883,112,207,14,207,14,124" style="stroke: #000000; stroke-width: 2.0;"/>
        <line style="stroke: #000000; stroke-width: 2.0;" x1="14" x2="90" y1="146.4883" y2="146.4883"/>
        <text fill="#000000" font-family="sans-serif" font-size="14" font-weight="bold" lengthAdjust="spacingAndGlyphs" textLength="63" x="17" y="140.5352">java.lang</text>
        <polygon fill="#FFFFFF" filter="url(#f1)" points="131,124,259,124,266,146.4883,1115,146.4883,1115,207,131,207,131,124" style="stroke: #000000; stroke-width: 2.0;"/>
        <line style="stroke: #000000; stroke-width: 2.0;" x1="131" x2="266" y1="146.4883" y2="146.4883"/>
        <text fill="#000000" font-family="sans-serif" font-size="14" font-weight="bold" lengthAdjust="spacingAndGlyphs" textLength="122" x="134" y="140.5352">javax.persistence</text>
        <polygon fill="#FFFFFF" filter="url(#f1)" points="606,16,667,16,674,38.4883,712,38.4883,712,99,606,99,606,16" style="stroke: #000000; stroke-width: 2.0;"/>
        <line style="stroke: #000000; stroke-width: 2.0;" x1="606" x2="674" y1="38.4883" y2="38.4883"/>
        <text fill="#000000" font-family="sans-serif" font-size="14" font-weight="bold" lengthAdjust="spacingAndGlyphs" textLength="55" x="609" y="32.5352">entities</text>
        <polygon fill="#FFFFFF" filter="url(#f1)" points="1134,124,1186,124,1193,146.4883,1248,146.4883,1248,207,1134,207,1134,124" style="stroke: #000000; stroke-width: 2.0;"/>
        <line style="stroke: #000000; stroke-width: 2.0;" x1="1134" x2="1193" y1="146.4883" y2="146.4883"/>
        <text fill="#000000" font-family="sans-serif" font-size="14" font-weight="bold" lengthAdjust="spacingAndGlyphs" textLength="46" x="1137" y="140.5352">java.io</text>
        <rect fill="#FEFECE" filter="url(#f1)" height="48" style="stroke: #A80036; stroke-width: 1.5;" width="82" x="22" y="151"/>
        <ellipse cx="37" cy="167" fill="#A9DCDF" rx="11" ry="11" style="stroke: #A80036; stroke-width: 1.0;"/>
        <path d="M39.0767,167.4761 Q39.0767,166.5381 38.6533,166.0068 Q38.23,165.4756 37.4912,165.4756 Q36.7524,165.4756 36.3333,166.0068 Q35.9141,166.5381 35.9141,167.4761 Q35.9141,168.4224 36.3333,168.9536 Q36.7524,169.4849 37.4912,169.4849 Q38.23,169.4849 38.6533,168.9536 Q39.0767,168.4224 39.0767,167.4761 Z M40.6206,170.8794 L38.9937,170.8794 L38.9937,170.1987 Q38.6782,170.6387 38.2507,170.842 Q37.8232,171.0454 37.2256,171.0454 Q35.8643,171.0454 35.03,170.0659 Q34.1958,169.0864 34.1958,167.4761 Q34.1958,165.874 35.0259,164.8987 Q35.856,163.9233 37.2256,163.9233 Q37.8149,163.9233 38.2632,164.1267 Q38.7114,164.3301 38.9937,164.7202 L38.9937,164.3799 Q38.9937,163.251 38.3752,162.6367 Q37.7568,162.0225 36.6113,162.0225 Q34.8848,162.0225 33.7932,163.5415 Q32.7017,165.0605 32.7017,167.4927 Q32.7017,170.041 33.9634,171.5476 Q35.2251,173.0542 37.3252,173.0542 Q37.9893,173.0542 38.6118,172.8591 Q39.2344,172.6641 39.8071,172.2739 L40.5708,173.7349 Q39.8984,174.1914 39.1057,174.4197 Q38.313,174.6479 37.4082,174.6479 Q34.5029,174.6479 32.7764,172.7139 Q31.0498,170.7798 31.0498,167.4927 Q31.0498,164.2803 32.6021,162.3503 Q34.1543,160.4204 36.7109,160.4204 Q38.5205,160.4204 39.5706,161.512 Q40.6206,162.6035 40.6206,164.4878 Z "/>
        <text fill="#000000" font-family="sans-serif" font-size="12" lengthAdjust="spacingAndGlyphs" textLength="50" x="51" y="171.5352">Override</text>
        <line style="stroke: #A80036; stroke-width: 1.5;" x1="23" x2="103" y1="183" y2="183"/>
        <line style="stroke: #A80036; stroke-width: 1.5;" x1="23" x2="103" y1="191" y2="191"/>
        <rect fill="#FEFECE" filter="url(#f1)" height="48" style="stroke: #A80036; stroke-width: 1.5;" width="75" x="1031.5" y="151"/>
        <ellipse cx="1046.5" cy="167" fill="#A9DCDF" rx="11" ry="11" style="stroke: #A80036; stroke-width: 1.0;"/>
        <path d="M1048.5767,167.4761 Q1048.5767,166.5381 1048.1533,166.0068 Q1047.73,165.4756 1046.9912,165.4756 Q1046.2524,165.4756 1045.8333,166.0068 Q1045.4141,166.5381 1045.4141,167.4761 Q1045.4141,168.4224 1045.8333,168.9536 Q1046.2524,169.4849 1046.9912,169.4849 Q1047.73,169.4849 1048.1533,168.9536 Q1048.5767,168.4224 1048.5767,167.4761 Z M1050.1206,170.8794 L1048.4937,170.8794 L1048.4937,170.1987 Q1048.1782,170.6387 1047.7507,170.842 Q1047.3232,171.0454 1046.7256,171.0454 Q1045.3643,171.0454 1044.53,170.0659 Q1043.6958,169.0864 1043.6958,167.4761 Q1043.6958,165.874 1044.5259,164.8987 Q1045.356,163.9233 1046.7256,163.9233 Q1047.3149,163.9233 1047.7632,164.1267 Q1048.2114,164.3301 1048.4937,164.7202 L1048.4937,164.3799 Q1048.4937,163.251 1047.8752,162.6367 Q1047.2568,162.0225 1046.1113,162.0225 Q1044.3848,162.0225 1043.2932,163.5415 Q1042.2017,165.0605 1042.2017,167.4927 Q1042.2017,170.041 1043.4634,171.5476 Q1044.7251,173.0542 1046.8252,173.0542 Q1047.4893,173.0542 1048.1118,172.8591 Q1048.7344,172.6641 1049.3071,172.2739 L1050.0708,173.7349 Q1049.3984,174.1914 1048.6057,174.4197 Q1047.813,174.6479 1046.9082,174.6479 Q1044.0029,174.6479 1042.2764,172.7139 Q1040.5498,170.7798 1040.5498,167.4927 Q1040.5498,164.2803 1042.1021,162.3503 Q1043.6543,160.4204 1046.2109,160.4204 Q1048.0205,160.4204 1049.0706,161.512 Q1050.1206,162.6035 1050.1206,164.4878 Z "/>
        <text fill="#000000" font-family="sans-serif" font-size="12" lengthAdjust="spacingAndGlyphs" textLength="43" x="1060.5" y="171.5352">Column</text>
        <line style="stroke: #A80036; stroke-width: 1.5;" x1="1032.5" x2="1105.5" y1="183" y2="183"/>
        <line style="stroke: #A80036; stroke-width: 1.5;" x1="1032.5" x2="1105.5" y1="191" y2="191"/>
        <rect fill="#FEFECE" filter="url(#f1)" height="48" style="stroke: #A80036; stroke-width: 1.5;" width="63" x="933.5" y="151"/>
        <ellipse cx="948.5" cy="167" fill="#A9DCDF" rx="11" ry="11" style="stroke: #A80036; stroke-width: 1.0;"/>
        <path d="M950.5767,167.4761 Q950.5767,166.5381 950.1533,166.0068 Q949.73,165.4756 948.9912,165.4756 Q948.2524,165.4756 947.8333,166.0068 Q947.4141,166.5381 947.4141,167.4761 Q947.4141,168.4224 947.8333,168.9536 Q948.2524,169.4849 948.9912,169.4849 Q949.73,169.4849 950.1533,168.9536 Q950.5767,168.4224 950.5767,167.4761 Z M952.1206,170.8794 L950.4937,170.8794 L950.4937,170.1987 Q950.1782,170.6387 949.7507,170.842 Q949.3232,171.0454 948.7256,171.0454 Q947.3643,171.0454 946.53,170.0659 Q945.6958,169.0864 945.6958,167.4761 Q945.6958,165.874 946.5259,164.8987 Q947.356,163.9233 948.7256,163.9233 Q949.3149,163.9233 949.7632,164.1267 Q950.2114,164.3301 950.4937,164.7202 L950.4937,164.3799 Q950.4937,163.251 949.8752,162.6367 Q949.2568,162.0225 948.1113,162.0225 Q946.3848,162.0225 945.2932,163.5415 Q944.2017,165.0605 944.2017,167.4927 Q944.2017,170.041 945.4634,171.5476 Q946.7251,173.0542 948.8252,173.0542 Q949.4893,173.0542 950.1118,172.8591 Q950.7344,172.6641 951.3071,172.2739 L952.0708,173.7349 Q951.3984,174.1914 950.6057,174.4197 Q949.813,174.6479 948.9082,174.6479 Q946.0029,174.6479 944.2764,172.7139 Q942.5498,170.7798 942.5498,167.4927 Q942.5498,164.2803 944.1021,162.3503 Q945.6543,160.4204 948.2109,160.4204 Q950.0205,160.4204 951.0706,161.512 Q952.1206,162.6035 952.1206,164.4878 Z "/>
        <text fill="#000000" font-family="sans-serif" font-size="12" lengthAdjust="spacingAndGlyphs" textLength="31" x="962.5" y="171.5352">Entity</text>
        <line style="stroke: #A80036; stroke-width: 1.5;" x1="934.5" x2="995.5" y1="183" y2="183"/>
        <line style="stroke: #A80036; stroke-width: 1.5;" x1="934.5" x2="995.5" y1="191" y2="191"/>
        <rect fill="#FEFECE" filter="url(#f1)" height="48" style="stroke: #A80036; stroke-width: 1.5;" width="125" x="773.5" y="151"/>
        <ellipse cx="788.5" cy="167" fill="#A9DCDF" rx="11" ry="11" style="stroke: #A80036; stroke-width: 1.0;"/>
        <path d="M790.5767,167.4761 Q790.5767,166.5381 790.1533,166.0068 Q789.73,165.4756 788.9912,165.4756 Q788.2524,165.4756 787.8333,166.0068 Q787.4141,166.5381 787.4141,167.4761 Q787.4141,168.4224 787.8333,168.9536 Q788.2524,169.4849 788.9912,169.4849 Q789.73,169.4849 790.1533,168.9536 Q790.5767,168.4224 790.5767,167.4761 Z M792.1206,170.8794 L790.4937,170.8794 L790.4937,170.1987 Q790.1782,170.6387 789.7507,170.842 Q789.3232,171.0454 788.7256,171.0454 Q787.3643,171.0454 786.53,170.0659 Q785.6958,169.0864 785.6958,167.4761 Q785.6958,165.874 786.5259,164.8987 Q787.356,163.9233 788.7256,163.9233 Q789.3149,163.9233 789.7632,164.1267 Q790.2114,164.3301 790.4937,164.7202 L790.4937,164.3799 Q790.4937,163.251 789.8752,162.6367 Q789.2568,162.0225 788.1113,162.0225 Q786.3848,162.0225 785.2932,163.5415 Q784.2017,165.0605 784.2017,167.4927 Q784.2017,170.041 785.4634,171.5476 Q786.7251,173.0542 788.8252,173.0542 Q789.4893,173.0542 790.1118,172.8591 Q790.7344,172.6641 791.3071,172.2739 L792.0708,173.7349 Q791.3984,174.1914 790.6057,174.4197 Q789.813,174.6479 788.9082,174.6479 Q786.0029,174.6479 784.2764,172.7139 Q782.5498,170.7798 782.5498,167.4927 Q782.5498,164.2803 784.1021,162.3503 Q785.6543,160.4204 788.2109,160.4204 Q790.0205,160.4204 791.0706,161.512 Q792.1206,162.6035 792.1206,164.4878 Z "/>
        <text fill="#000000" font-family="sans-serif" font-size="12" lengthAdjust="spacingAndGlyphs" textLength="93" x="802.5" y="171.5352">GeneratedValue</text>
        <line style="stroke: #A80036; stroke-width: 1.5;" x1="774.5" x2="897.5" y1="183" y2="183"/>
        <line style="stroke: #A80036; stroke-width: 1.5;" x1="774.5" x2="897.5" y1="191" y2="191"/>
        <rect fill="#FEFECE" filter="url(#f1)" height="48" style="stroke: #A80036; stroke-width: 1.5;" width="43" x="695.5" y="151"/>
        <ellipse cx="710.5" cy="167" fill="#A9DCDF" rx="11" ry="11" style="stroke: #A80036; stroke-width: 1.0;"/>
        <path d="M712.5767,167.4761 Q712.5767,166.5381 712.1533,166.0068 Q711.73,165.4756 710.9912,165.4756 Q710.2524,165.4756 709.8333,166.0068 Q709.4141,166.5381 709.4141,167.4761 Q709.4141,168.4224 709.8333,168.9536 Q710.2524,169.4849 710.9912,169.4849 Q711.73,169.4849 712.1533,168.9536 Q712.5767,168.4224 712.5767,167.4761 Z M714.1206,170.8794 L712.4937,170.8794 L712.4937,170.1987 Q712.1782,170.6387 711.7507,170.842 Q711.3232,171.0454 710.7256,171.0454 Q709.3643,171.0454 708.53,170.0659 Q707.6958,169.0864 707.6958,167.4761 Q707.6958,165.874 708.5259,164.8987 Q709.356,163.9233 710.7256,163.9233 Q711.3149,163.9233 711.7632,164.1267 Q712.2114,164.3301 712.4937,164.7202 L712.4937,164.3799 Q712.4937,163.251 711.8752,162.6367 Q711.2568,162.0225 710.1113,162.0225 Q708.3848,162.0225 707.2932,163.5415 Q706.2017,165.0605 706.2017,167.4927 Q706.2017,170.041 707.4634,171.5476 Q708.7251,173.0542 710.8252,173.0542 Q711.4893,173.0542 712.1118,172.8591 Q712.7344,172.6641 713.3071,172.2739 L714.0708,173.7349 Q713.3984,174.1914 712.6057,174.4197 Q711.813,174.6479 710.9082,174.6479 Q708.0029,174.6479 706.2764,172.7139 Q704.5498,170.7798 704.5498,167.4927 Q704.5498,164.2803 706.1021,162.3503 Q707.6543,160.4204 710.2109,160.4204 Q712.0205,160.4204 713.0706,161.512 Q714.1206,162.6035 714.1206,164.4878 Z "/>
        <text fill="#000000" font-family="sans-serif" font-size="12" lengthAdjust="spacingAndGlyphs" textLength="11" x="724.5" y="171.5352">Id</text>
        <line style="stroke: #A80036; stroke-width: 1.5;" x1="696.5" x2="737.5" y1="183" y2="183"/>
        <line style="stroke: #A80036; stroke-width: 1.5;" x1="696.5" x2="737.5" y1="191" y2="191"/>
        <rect fill="#FEFECE" filter="url(#f1)" height="48" style="stroke: #A80036; stroke-width: 1.5;" width="118" x="542" y="151"/>
        <ellipse cx="557" cy="167" fill="#A9DCDF" rx="11" ry="11" style="stroke: #A80036; stroke-width: 1.0;"/>
        <path d="M559.0767,167.4761 Q559.0767,166.5381 558.6533,166.0068 Q558.23,165.4756 557.4912,165.4756 Q556.7524,165.4756 556.3333,166.0068 Q555.9141,166.5381 555.9141,167.4761 Q555.9141,168.4224 556.3333,168.9536 Q556.7524,169.4849 557.4912,169.4849 Q558.23,169.4849 558.6533,168.9536 Q559.0767,168.4224 559.0767,167.4761 Z M560.6206,170.8794 L558.9937,170.8794 L558.9937,170.1987 Q558.6782,170.6387 558.2507,170.842 Q557.8232,171.0454 557.2256,171.0454 Q555.8643,171.0454 555.03,170.0659 Q554.1958,169.0864 554.1958,167.4761 Q554.1958,165.874 555.0259,164.8987 Q555.856,163.9233 557.2256,163.9233 Q557.8149,163.9233 558.2632,164.1267 Q558.7114,164.3301 558.9937,164.7202 L558.9937,164.3799 Q558.9937,163.251 558.3752,162.6367 Q557.7568,162.0225 556.6113,162.0225 Q554.8848,162.0225 553.7932,163.5415 Q552.7017,165.0605 552.7017,167.4927 Q552.7017,170.041 553.9634,171.5476 Q555.2251,173.0542 557.3252,173.0542 Q557.9893,173.0542 558.6118,172.8591 Q559.2344,172.6641 559.8071,172.2739 L560.5708,173.7349 Q559.8984,174.1914 559.1057,174.4197 Q558.313,174.6479 557.4082,174.6479 Q554.5029,174.6479 552.7764,172.7139 Q551.0498,170.7798 551.0498,167.4927 Q551.0498,164.2803 552.6021,162.3503 Q554.1543,160.4204 556.7109,160.4204 Q558.5205,160.4204 559.5706,161.512 Q560.6206,162.6035 560.6206,164.4878 Z "/>
        <text fill="#000000" font-family="sans-serif" font-size="12" lengthAdjust="spacingAndGlyphs" textLength="86" x="571" y="171.5352">NamedQueries</text>
        <line style="stroke: #A80036; stroke-width: 1.5;" x1="543" x2="659" y1="183" y2="183"/>
        <line style="stroke: #A80036; stroke-width: 1.5;" x1="543" x2="659" y1="191" y2="191"/>
        <rect fill="#FEFECE" filter="url(#f1)" height="48" style="stroke: #A80036; stroke-width: 1.5;" width="108" x="399" y="151"/>
        <ellipse cx="414" cy="167" fill="#A9DCDF" rx="11" ry="11" style="stroke: #A80036; stroke-width: 1.0;"/>
        <path d="M416.0767,167.4761 Q416.0767,166.5381 415.6533,166.0068 Q415.23,165.4756 414.4912,165.4756 Q413.7524,165.4756 413.3333,166.0068 Q412.9141,166.5381 412.9141,167.4761 Q412.9141,168.4224 413.3333,168.9536 Q413.7524,169.4849 414.4912,169.4849 Q415.23,169.4849 415.6533,168.9536 Q416.0767,168.4224 416.0767,167.4761 Z M417.6206,170.8794 L415.9937,170.8794 L415.9937,170.1987 Q415.6782,170.6387 415.2507,170.842 Q414.8232,171.0454 414.2256,171.0454 Q412.8643,171.0454 412.03,170.0659 Q411.1958,169.0864 411.1958,167.4761 Q411.1958,165.874 412.0259,164.8987 Q412.856,163.9233 414.2256,163.9233 Q414.8149,163.9233 415.2632,164.1267 Q415.7114,164.3301 415.9937,164.7202 L415.9937,164.3799 Q415.9937,163.251 415.3752,162.6367 Q414.7568,162.0225 413.6113,162.0225 Q411.8848,162.0225 410.7932,163.5415 Q409.7017,165.0605 409.7017,167.4927 Q409.7017,170.041 410.9634,171.5476 Q412.2251,173.0542 414.3252,173.0542 Q414.9893,173.0542 415.6118,172.8591 Q416.2344,172.6641 416.8071,172.2739 L417.5708,173.7349 Q416.8984,174.1914 416.1057,174.4197 Q415.313,174.6479 414.4082,174.6479 Q411.5029,174.6479 409.7764,172.7139 Q408.0498,170.7798 408.0498,167.4927 Q408.0498,164.2803 409.6021,162.3503 Q411.1543,160.4204 413.7109,160.4204 Q415.5205,160.4204 416.5706,161.512 Q417.6206,162.6035 417.6206,164.4878 Z "/>
        <text fill="#000000" font-family="sans-serif" font-size="12" lengthAdjust="spacingAndGlyphs" textLength="76" x="428" y="171.5352">NamedQuery</text>
        <line style="stroke: #A80036; stroke-width: 1.5;" x1="400" x2="506" y1="183" y2="183"/>
        <line style="stroke: #A80036; stroke-width: 1.5;" x1="400" x2="506" y1="191" y2="191"/>
        <rect fill="#FEFECE" filter="url(#f1)" height="48" style="stroke: #A80036; stroke-width: 1.5;" width="65" x="298.5" y="151"/>
        <ellipse cx="313.5" cy="167" fill="#A9DCDF" rx="11" ry="11" style="stroke: #A80036; stroke-width: 1.0;"/>
        <path d="M315.5767,167.4761 Q315.5767,166.5381 315.1533,166.0068 Q314.73,165.4756 313.9912,165.4756 Q313.2524,165.4756 312.8333,166.0068 Q312.4141,166.5381 312.4141,167.4761 Q312.4141,168.4224 312.8333,168.9536 Q313.2524,169.4849 313.9912,169.4849 Q314.73,169.4849 315.1533,168.9536 Q315.5767,168.4224 315.5767,167.4761 Z M317.1206,170.8794 L315.4937,170.8794 L315.4937,170.1987 Q315.1782,170.6387 314.7507,170.842 Q314.3232,171.0454 313.7256,171.0454 Q312.3643,171.0454 311.53,170.0659 Q310.6958,169.0864 310.6958,167.4761 Q310.6958,165.874 311.5259,164.8987 Q312.356,163.9233 313.7256,163.9233 Q314.3149,163.9233 314.7632,164.1267 Q315.2114,164.3301 315.4937,164.7202 L315.4937,164.3799 Q315.4937,163.251 314.8752,162.6367 Q314.2568,162.0225 313.1113,162.0225 Q311.3848,162.0225 310.2932,163.5415 Q309.2017,165.0605 309.2017,167.4927 Q309.2017,170.041 310.4634,171.5476 Q311.7251,173.0542 313.8252,173.0542 Q314.4893,173.0542 315.1118,172.8591 Q315.7344,172.6641 316.3071,172.2739 L317.0708,173.7349 Q316.3984,174.1914 315.6057,174.4197 Q314.813,174.6479 313.9082,174.6479 Q311.0029,174.6479 309.2764,172.7139 Q307.5498,170.7798 307.5498,167.4927 Q307.5498,164.2803 309.1021,162.3503 Q310.6543,160.4204 313.2109,160.4204 Q315.0205,160.4204 316.0706,161.512 Q317.1206,162.6035 317.1206,164.4878 Z "/>
        <text fill="#000000" font-family="sans-serif" font-size="12" lengthAdjust="spacingAndGlyphs" textLength="33" x="327.5" y="171.5352">Table</text>
        <line style="stroke: #A80036; stroke-width: 1.5;" x1="299.5" x2="362.5" y1="183" y2="183"/>
        <line style="stroke: #A80036; stroke-width: 1.5;" x1="299.5" x2="362.5" y1="191" y2="191"/>
        <rect fill="#FEFECE" filter="url(#f1)" height="48" style="stroke: #A80036; stroke-width: 1.5;" width="124" x="139" y="151"/>
        <ellipse cx="154" cy="167" fill="#ADD1B2" rx="11" ry="11" style="stroke: #A80036; stroke-width: 1.0;"/>
        <path d="M156.9731,172.6431 Q156.3921,172.9419 155.7529,173.0913 Q155.1138,173.2407 154.4082,173.2407 Q151.9014,173.2407 150.5815,171.5889 Q149.2617,169.937 149.2617,166.8159 Q149.2617,163.6865 150.5815,162.0347 Q151.9014,160.3828 154.4082,160.3828 Q155.1138,160.3828 155.7612,160.5322 Q156.4087,160.6816 156.9731,160.9805 L156.9731,163.7031 Q156.3423,163.1221 155.7488,162.8523 Q155.1553,162.5825 154.5244,162.5825 Q153.1797,162.5825 152.4949,163.6492 Q151.8101,164.7158 151.8101,166.8159 Q151.8101,168.9077 152.4949,169.9744 Q153.1797,171.041 154.5244,171.041 Q155.1553,171.041 155.7488,170.7712 Q156.3423,170.5015 156.9731,169.9204 Z "/>
        <text fill="#000000" font-family="sans-serif" font-size="12" lengthAdjust="spacingAndGlyphs" textLength="92" x="168" y="171.5352">GenerationType</text>
        <line style="stroke: #A80036; stroke-width: 1.5;" x1="140" x2="262" y1="183" y2="183"/>
        <line style="stroke: #A80036; stroke-width: 1.5;" x1="140" x2="262" y1="191" y2="191"/>
        <rect fill="#FEFECE" filter="url(#f1)" height="48" style="stroke: #A80036; stroke-width: 1.5;" width="89" x="614.5" y="43"/>
        <ellipse cx="629.5" cy="59" fill="#ADD1B2" rx="11" ry="11" style="stroke: #A80036; stroke-width: 1.0;"/>
        <path d="M632.4731,64.6431 Q631.8921,64.9419 631.2529,65.0913 Q630.6138,65.2407 629.9082,65.2407 Q627.4014,65.2407 626.0815,63.5889 Q624.7617,61.937 624.7617,58.8159 Q624.7617,55.6865 626.0815,54.0347 Q627.4014,52.3828 629.9082,52.3828 Q630.6138,52.3828 631.2612,52.5322 Q631.9087,52.6816 632.4731,52.9805 L632.4731,55.7031 Q631.8423,55.1221 631.2488,54.8523 Q630.6553,54.5825 630.0244,54.5825 Q628.6797,54.5825 627.9949,55.6492 Q627.3101,56.7158 627.3101,58.8159 Q627.3101,60.9077 627.9949,61.9744 Q628.6797,63.041 630.0244,63.041 Q630.6553,63.041 631.2488,62.7712 Q631.8423,62.5015 632.4731,61.9204 Z "/>
        <text fill="#000000" font-family="sans-serif" font-size="12" lengthAdjust="spacingAndGlyphs" textLength="57" x="643.5" y="63.5352">UserEntity</text>
        <line style="stroke: #A80036; stroke-width: 1.5;" x1="615.5" x2="702.5" y1="75" y2="75"/>
        <line style="stroke: #A80036; stroke-width: 1.5;" x1="615.5" x2="702.5" y1="83" y2="83"/>
        <rect fill="#FEFECE" filter="url(#f1)" height="48" style="stroke: #A80036; stroke-width: 1.5;" width="98" x="1142" y="151"/>
        <ellipse cx="1157" cy="167" fill="#B4A7E5" rx="11" ry="11" style="stroke: #A80036; stroke-width: 1.0;"/>
        <path d="M1152.9277,162.7651 L1152.9277,160.6069 L1160.3071,160.6069 L1160.3071,162.7651 L1157.8418,162.7651 L1157.8418,170.8418 L1160.3071,170.8418 L1160.3071,173 L1152.9277,173 L1152.9277,170.8418 L1155.3931,170.8418 L1155.3931,162.7651 Z "/>
        <text fill="#000000" font-family="sans-serif" font-size="12" font-style="italic" lengthAdjust="spacingAndGlyphs" textLength="66" x="1171" y="171.5352">Serializable</text>
        <line style="stroke: #A80036; stroke-width: 1.5;" x1="1143" x2="1239" y1="183" y2="183"/>
        <line style="stroke: #A80036; stroke-width: 1.5;" x1="1143" x2="1239" y1="191" y2="191"/>
        <path d="M614.177,69.342 C501.913,73.231 211.352,86.706 123,124 C110.207,129.3999 98.0482,138.4806 88.0628,147.4332 " fill="none" style="stroke: #A80036; stroke-width: 1.0; stroke-dasharray: 7.0,7.0;"/>
        <polygon fill="#A80036" points="84.2049,150.9827,93.5364,147.8326,87.8844,147.5973,88.1198,141.9453,84.2049,150.9827" style="stroke: #A80036; stroke-width: 1.0;"/>
        <path d="M703.735,67.02 C773.503,67.207 910.903,74.562 1014,124 C1025.61,129.5658 1036.52,138.3855 1045.52,147.0783 " fill="none" style="stroke: #A80036; stroke-width: 1.0; stroke-dasharray: 7.0,7.0;"/>
        <polygon fill="#A80036" points="1049.25,150.7861,1045.6703,141.6108,1045.6975,147.2676,1040.0407,147.2949,1049.25,150.7861" style="stroke: #A80036; stroke-width: 1.0;"/>
        <path d="M703.522,69.997 C757.022,74.07 848.061,86.44 916,124 C926.329,129.7105 935.873,138.2833 943.741,146.7252 " fill="none" style="stroke: #A80036; stroke-width: 1.0; stroke-dasharray: 7.0,7.0;"/>
        <polygon fill="#A80036" points="947.464,150.8457,944.396,141.4869,944.1111,147.1366,938.4614,146.8516,947.464,150.8457" style="stroke: #A80036; stroke-width: 1.0;"/>
        <path d="M699.773,91.117 C717.178,101.094 737.666,112.983 756,124 C768.753,131.6636 782.529,140.1844 794.996,147.9891 " fill="none" style="stroke: #A80036; stroke-width: 1.0; stroke-dasharray: 7.0,7.0;"/>
        <polygon fill="#A80036" points="799.526,150.8292,794.0253,142.6596,795.2897,148.1734,789.7759,149.4378,799.526,150.8292" style="stroke: #A80036; stroke-width: 1.0;"/>
        <path d="M671.585,91 C680.417,107.141 692.277,128.8162 701.662,145.9688 " fill="none" style="stroke: #A80036; stroke-width: 1.0; stroke-dasharray: 7.0,7.0;"/>
        <polygon fill="#A80036" points="704.239,150.6784,703.4275,140.863,701.8387,146.2922,696.4096,144.7035,704.239,150.6784" style="stroke: #A80036; stroke-width: 1.0;"/>
        <path d="M646.415,91 C637.583,107.141 625.723,128.8162 616.338,145.9688 " fill="none" style="stroke: #A80036; stroke-width: 1.0; stroke-dasharray: 7.0,7.0;"/>
        <polygon fill="#A80036" points="613.761,150.6784,621.5904,144.7035,616.1613,146.2922,614.5725,140.863,613.761,150.6784" style="stroke: #A80036; stroke-width: 1.0;"/>
        <path d="M614.459,83.894 C587.849,94.05 553.743,108.245 525,124 C512.283,130.971 499.056,139.6807 487.462,147.8686 " fill="none" style="stroke: #A80036; stroke-width: 1.0; stroke-dasharray: 7.0,7.0;"/>
        <polygon fill="#A80036" points="483.268,150.8574,492.9183,148.8898,487.3393,147.9549,488.2743,142.3758,483.268,150.8574" style="stroke: #A80036; stroke-width: 1.0;"/>
        <path d="M614.177,69.305 C557.128,72.645 456.992,84.242 382,124 C371.168,129.7427 361.096,138.5081 352.812,147.1046 " fill="none" style="stroke: #A80036; stroke-width: 1.0; stroke-dasharray: 7.0,7.0;"/>
        <polygon fill="#A80036" points="349.374,150.7692,358.4486,146.9415,352.7947,147.1224,352.6138,141.4685,349.374,150.7692" style="stroke: #A80036; stroke-width: 1.0;"/>
        <path d="M614.478,68.746 C542.287,71.23 396.171,81.589 281,124 C265.258,129.7969 249.307,138.9587 235.834,147.865 " fill="none" style="stroke: #A80036; stroke-width: 1.0; stroke-dasharray: 7.0,7.0;"/>
        <polygon fill="#A80036" points="231.364,150.8704,241.0646,149.1682,235.5133,148.0806,236.6009,142.5293,231.364,150.8704" style="stroke: #A80036; stroke-width: 1.0;"/>
        <path d="M703.55,70.486 C804.38,76.576 1047.18,93.975 1123,124 C1132.3,127.684 1141.48,132.9598 1149.94,138.7163 " fill="none" style="stroke: #A80036; stroke-width: 1.0;"/>
        <polygon fill="none" points="1154.31,133.2437,1166.1,150.8512,1145.9,144.4385,1154.31,133.2437" style="stroke: #A80036; stroke-width: 1.0;"/>
    </g>
</svg>
